<svg width="16" height="16" viewBox="0 0 16 16" fill="none" xmlns="http://www.w3.org/2000/svg">
<g id="SVG">
<path id="Vector" d="M8.00317 4.85107C6.13989 4.85107 4.63696 6.354 4.63696 8.21729C4.63696 10.0806 6.13989 11.5835 8.00317 11.5835C9.86646 11.5835 11.3694 10.0806 11.3694 8.21729C11.3694 6.354 9.86646 4.85107 8.00317 4.85107ZM8.00317 10.4058C6.79907 10.4058 5.8147 9.42432 5.8147 8.21729C5.8147 7.01025 6.79614 6.02881 8.00317 6.02881C9.21021 6.02881 10.1917 7.01025 10.1917 8.21729C10.1917 9.42432 9.20728 10.4058 8.00317 10.4058ZM12.2922 4.71338C12.2922 5.1499 11.9407 5.49854 11.5071 5.49854C11.0706 5.49854 10.7219 5.14697 10.7219 4.71338C10.7219 4.27979 11.0735 3.92822 11.5071 3.92822C11.9407 3.92822 12.2922 4.27979 12.2922 4.71338ZM14.5217 5.51025C14.4719 4.4585 14.2317 3.52686 13.4612 2.75928C12.6936 1.9917 11.762 1.75146 10.7102 1.69873C9.62622 1.63721 6.3772 1.63721 5.29321 1.69873C4.24438 1.74854 3.31274 1.98877 2.54224 2.75635C1.77173 3.52393 1.53442 4.45557 1.48169 5.50732C1.42017 6.59131 1.42017 9.84033 1.48169 10.9243C1.53149 11.9761 1.77173 12.9077 2.54224 13.6753C3.31274 14.4429 4.24146 14.6831 5.29321 14.7358C6.3772 14.7974 9.62622 14.7974 10.7102 14.7358C11.762 14.686 12.6936 14.4458 13.4612 13.6753C14.2288 12.9077 14.469 11.9761 14.5217 10.9243C14.5833 9.84033 14.5833 6.59424 14.5217 5.51025ZM13.1213 12.0874C12.8928 12.6616 12.4504 13.104 11.8733 13.3354C11.009 13.6782 8.95825 13.5991 8.00317 13.5991C7.0481 13.5991 4.99438 13.6753 4.13306 13.3354C3.55884 13.1069 3.11646 12.6646 2.88501 12.0874C2.54224 11.2231 2.62134 9.17236 2.62134 8.21729C2.62134 7.26221 2.54517 5.2085 2.88501 4.34717C3.11353 3.77295 3.55591 3.33057 4.13306 3.09912C4.99731 2.75635 7.0481 2.83545 8.00317 2.83545C8.95825 2.83545 11.012 2.75928 11.8733 3.09912C12.4475 3.32764 12.8899 3.77002 13.1213 4.34717C13.4641 5.21143 13.385 7.26221 13.385 8.21729C13.385 9.17236 13.4641 11.2261 13.1213 12.0874Z" fill="#394148"/>
</g>
</svg>
