<svg width="16" height="16" viewBox="0 0 16 16" fill="none" xmlns="http://www.w3.org/2000/svg">
<g id="SVG">
<path id="Vector" d="M13.625 1.65771H2.37207C1.85645 1.65771 1.4375 2.08252 1.4375 2.604V13.8364C1.4375 14.3579 1.85645 14.7827 2.37207 14.7827H13.625C14.1406 14.7827 14.5625 14.3579 14.5625 13.8364V2.604C14.5625 2.08252 14.1406 1.65771 13.625 1.65771ZM5.4043 12.9077H3.45898V6.64404H5.40723V12.9077H5.4043ZM4.43164 5.78857C3.80762 5.78857 3.30371 5.28174 3.30371 4.66064C3.30371 4.03955 3.80762 3.53271 4.43164 3.53271C5.05273 3.53271 5.55957 4.03955 5.55957 4.66064C5.55957 5.28467 5.05566 5.78857 4.43164 5.78857ZM12.6963 12.9077H10.751V9.86084C10.751 9.13428 10.7363 8.19971 9.74023 8.19971C8.72656 8.19971 8.57129 8.99072 8.57129 9.80811V12.9077H6.62598V6.64404H8.49219V7.49951H8.51855C8.7793 7.00732 9.41504 6.48877 10.3613 6.48877C12.3301 6.48877 12.6963 7.78662 12.6963 9.47412V12.9077Z" fill="#394148"/>
</g>
</svg>
