<svg width="16" height="16" viewBox="0 0 16 16" fill="none" xmlns="http://www.w3.org/2000/svg">
<g id="SVG" clip-path="url(#clip0_51_60)">
<path id="Vector" d="M14.8137 4.78488C14.6502 4.16899 14.1682 3.68394 13.5563 3.51933C12.4472 3.22021 7.99979 3.22021 7.99979 3.22021C7.99979 3.22021 3.5524 3.22021 2.44326 3.51933C1.83135 3.68396 1.34943 4.16899 1.18586 4.78488C0.888672 5.9012 0.888672 8.23032 0.888672 8.23032C0.888672 8.23032 0.888672 10.5594 1.18586 11.6758C1.34943 12.2916 1.83135 12.7565 2.44326 12.9211C3.5524 13.2202 7.99979 13.2202 7.99979 13.2202C7.99979 13.2202 12.4472 13.2202 13.5563 12.9211C14.1682 12.7565 14.6502 12.2916 14.8137 11.6758C15.1109 10.5594 15.1109 8.23032 15.1109 8.23032C15.1109 8.23032 15.1109 5.9012 14.8137 4.78488ZM6.54523 10.345V6.11566L10.2624 8.23037L6.54523 10.345Z" fill="#394148"/>
</g>
<defs>
<clipPath id="clip0_51_60">
<rect width="15" height="15" fill="white" transform="translate(0.5 0.720215)"/>
</clipPath>
</defs>
</svg>
