<svg width="25" height="28" viewBox="0 0 25 28" fill="none" xmlns="http://www.w3.org/2000/svg">
<g id="Group 54">
<path id="notificatiob" d="M24.6489 19.5091C24.4069 18.9398 24.0098 18.4523 23.5157 18.0955C23.0215 17.7386 22.429 17.5124 21.796 17.4732C21.7043 17.4677 21.6342 17.4609 21.5911 17.454C21.5931 17.4677 21.5944 17.4781 21.5958 17.4863C21.5971 17.4946 21.5985 17.5001 21.5991 17.5021V17.5035L21.5857 17.5083L21.5391 17.5262L21.4879 17.5537L21.5122 17.52L21.5445 17.4444C21.5445 17.4444 21.5452 17.445 21.5466 17.445C21.5493 17.4457 21.556 17.4478 21.5661 17.4499C21.5729 17.4512 21.5816 17.4526 21.5911 17.454C21.587 17.41 21.585 17.3385 21.5836 17.2443C21.5809 16.9596 21.5796 16.6743 21.5796 16.3883C21.5796 15.6615 21.587 14.932 21.587 14.2011C21.587 13.4702 21.5796 12.7627 21.552 12.0408C21.492 10.4883 21.0457 9.04987 20.2556 7.73731C19.7581 6.90948 19.1629 6.18754 18.4712 5.57904C17.7796 4.97124 16.9915 4.47619 16.1111 4.09872C16.0875 4.0884 16.0673 4.07946 16.0518 4.0719C16.0518 4.0774 16.0505 4.08222 16.0498 4.08772C16.0478 4.10009 16.0471 4.10697 16.0471 4.10903V4.11041H16.0397L16.004 4.11384L15.9615 4.12209L15.9568 4.12416L16.0046 4.07053L16.0067 4.06778L16.0174 4.05265L16.0188 4.05402C16.0188 4.05402 16.0269 4.05953 16.0363 4.06434C16.041 4.0664 16.0458 4.06915 16.0518 4.0719C16.0754 3.92339 16.0875 3.77625 16.0875 3.63186C16.0875 3.06324 15.9109 2.53451 15.6332 2.05665C15.3892 1.63723 15.0757 1.29895 14.7096 1.04386C14.3436 0.787402 13.9263 0.613448 13.4753 0.508251L13.4416 0.5H12.3523L12.3091 0.513751C12.2269 0.539879 12.1615 0.563944 12.1116 0.575632C11.451 0.73721 10.8598 1.13806 10.4283 1.68192C9.99755 2.22648 9.72588 2.91885 9.72521 3.66693C9.72521 3.7955 9.73397 3.92614 9.75082 4.05815C9.75082 4.05746 9.75285 4.05746 9.75352 4.05678C9.76565 4.05196 9.77442 4.04784 9.78049 4.04509L9.7852 4.04234L9.7879 4.04027H9.78857L9.79666 4.05127L9.84587 4.11522L9.82295 4.10559L9.75487 4.10078V4.0994C9.75487 4.0994 9.75487 4.09047 9.75352 4.08015C9.75217 4.07259 9.7515 4.06571 9.75082 4.05815C8.29944 4.6302 7.08468 5.55085 6.1153 6.78778C5.04143 8.15535 4.43135 9.73125 4.27023 11.4653C4.22507 11.9438 4.21563 12.4189 4.21563 12.8886C4.21563 13.2413 4.22102 13.5906 4.2217 13.9371C4.2217 14.45 4.22304 14.9629 4.22304 15.4759C4.22304 16.1029 4.22237 16.73 4.22035 17.357C4.22035 17.4031 4.21765 17.4375 4.21496 17.4602C4.22507 17.4581 4.23316 17.456 4.23788 17.4547L4.24327 17.4533L4.24597 17.4519L4.25945 17.4815L4.279 17.5166L4.29248 17.5337L4.24799 17.5069L4.20889 17.4918H4.20956V17.4897L4.21091 17.4849C4.21226 17.4801 4.21361 17.4719 4.21496 17.4602C4.19069 17.465 4.15294 17.4691 4.10373 17.4719C3.94868 17.4808 3.79498 17.5007 3.64532 17.5269C2.9193 17.6548 2.23979 18.0398 1.73622 18.6043C1.4841 18.8869 1.27647 19.2155 1.13153 19.5799C0.986598 19.9443 0.905029 20.3445 0.905029 20.768C0.905029 20.8801 0.910422 20.9943 0.922556 21.1098C1.00952 21.9596 1.39309 22.707 1.96744 23.2392C2.54112 23.7713 3.30692 24.089 4.14687 24.0897C4.91199 24.0911 5.67779 24.0931 6.44359 24.0931C7.20939 24.0931 8.00822 24.0911 8.79155 24.0828H8.80099C8.84346 24.0828 8.87245 24.0862 8.88728 24.089C8.88458 24.0821 8.88256 24.0787 8.88188 24.0773H8.88121L8.91559 24.0519L8.91829 24.0491L8.90008 24.0924H8.89941L8.89469 24.0911C8.89469 24.0911 8.89065 24.0897 8.88728 24.089C8.89402 24.1048 8.9048 24.1378 8.91424 24.188C9.09558 25.0983 9.57892 25.9241 10.2726 26.525C10.9656 27.1253 11.873 27.5 12.8902 27.5C13.0682 27.5 13.2502 27.4883 13.4342 27.4649C14.3139 27.3522 15.0973 26.9609 15.7006 26.3758C16.3046 25.7914 16.73 25.0131 16.9012 24.1296C16.9046 24.1117 16.9086 24.0979 16.912 24.0876C16.9019 24.0883 16.8951 24.0897 16.8911 24.0904H16.8877L16.8817 24.0752L16.8722 24.0512L16.8574 24.0195L16.8688 24.0333L16.9201 24.0635C16.9201 24.0635 16.9194 24.0649 16.9181 24.067C16.9167 24.0711 16.9147 24.0773 16.912 24.0876C16.9248 24.0862 16.9423 24.0849 16.9646 24.0849H16.9706C17.847 24.0904 18.724 24.0931 19.6011 24.0931C20.3143 24.0931 21.0275 24.0917 21.7407 24.089C22.5436 24.0849 23.331 23.7528 23.9222 23.1725C24.2174 22.8816 24.4635 22.5282 24.6361 22.1226C24.808 21.7169 24.9057 21.2597 24.905 20.766V20.7357C24.9017 20.3033 24.81 19.888 24.6489 19.5091ZM12.1574 3.31214C12.2302 3.17875 12.3401 3.06256 12.4702 2.98074C12.6003 2.89892 12.748 2.85216 12.899 2.8501H12.9077C13.0048 2.8501 13.1032 2.87004 13.1976 2.90923C13.3392 2.96698 13.4706 3.06737 13.5677 3.18976C13.6405 3.28258 13.6937 3.3864 13.7221 3.49297C13.4625 3.46134 13.2037 3.44622 12.9455 3.44622C12.657 3.44622 12.3691 3.46409 12.0833 3.49847C12.1001 3.43384 12.1251 3.37127 12.1574 3.31214ZM14.4892 24.0876C14.3665 24.3613 14.1697 24.5992 13.925 24.7779C13.6351 24.9897 13.2792 25.1155 12.9097 25.1203H12.8895C12.5363 25.1203 12.179 24.9938 11.8837 24.7772C11.6377 24.5971 11.4375 24.3571 11.3155 24.0876C11.8514 24.0911 12.388 24.0924 12.9239 24.0924C13.4598 24.0924 13.9681 24.0911 14.4892 24.0876ZM22.5139 21.1008C22.4573 21.2535 22.3589 21.3965 22.2382 21.501C22.1175 21.6062 21.978 21.6729 21.8344 21.6901C21.6922 21.708 21.5344 21.7086 21.3666 21.7086C19.5876 21.7093 17.8079 21.7093 16.0289 21.7093H4.35652C4.2008 21.71 4.05991 21.7059 3.94126 21.6825C3.82127 21.6591 3.72487 21.6213 3.63049 21.5498C3.49904 21.4494 3.40129 21.3305 3.3359 21.2012C3.27051 21.072 3.23681 20.9331 3.23681 20.7873C3.23681 20.7 3.24894 20.6099 3.27523 20.5185C3.3204 20.3576 3.43635 20.1926 3.59409 20.0709C3.75116 19.9485 3.94598 19.8728 4.13136 19.8673C4.53381 19.8536 4.91739 19.7759 5.26523 19.6047C5.61375 19.4342 5.92115 19.1681 6.16316 18.8057C6.29259 18.6125 6.39304 18.4063 6.46045 18.1869C6.52853 17.9683 6.56291 17.7379 6.56291 17.5001V17.4952C6.56089 16.4687 6.55617 15.4422 6.55617 14.4177C6.55617 13.7116 6.55819 13.0061 6.56561 12.3007C6.57437 11.4117 6.73009 10.588 7.03412 9.82889C7.33815 9.06981 7.79183 8.37468 8.40596 7.74281C8.95132 7.18313 9.54994 6.75134 10.2059 6.4385C10.8618 6.12566 11.5757 5.93245 12.3529 5.85545C12.5464 5.83619 12.7378 5.82726 12.9286 5.82657C14.4191 5.82726 15.8091 6.4 16.9053 7.34953C18.0007 8.29905 18.7975 9.6233 19.0975 11.1133C19.1986 11.6152 19.2444 12.126 19.2444 12.6438V12.6589C19.2444 12.7277 19.2438 12.7964 19.2438 12.8652C19.2438 13.7418 19.2532 14.6164 19.2532 15.4882C19.2532 16.1139 19.2485 16.7369 19.2323 17.3591C19.2316 17.3797 19.2316 17.4004 19.2316 17.4203C19.2316 17.6953 19.2802 17.9793 19.3766 18.2536C19.5222 18.6648 19.7777 19.0574 20.1518 19.3537C20.5246 19.6508 21.0154 19.8453 21.5998 19.8639C21.8621 19.8735 22.0656 19.9505 22.2214 20.0743C22.3757 20.1987 22.489 20.3727 22.5503 20.612C22.5652 20.6704 22.5719 20.7302 22.5719 20.7921C22.5719 20.8932 22.5523 20.9991 22.5139 21.1008Z" fill="#5E0A83"/>
<circle id="Ellipse 17" cx="19.405" cy="6" r="3.5" fill="#F70387"/>
</g>
</svg>
