<svg width="46" height="46" viewBox="0 0 46 46" fill="none" xmlns="http://www.w3.org/2000/svg">
<rect width="46" height="46" rx="23" fill="#17652E" fill-opacity="0.1"/>
<path d="M24.6403 15.8373C24.6403 15.8586 24.6423 15.8797 24.6466 15.9009C24.6506 15.9218 24.6569 15.9422 24.6651 15.9618C24.6732 15.9816 24.6833 16.0003 24.6951 16.0181C24.7071 16.0359 24.7207 16.0524 24.7357 16.0674C24.7509 16.0826 24.7674 16.0961 24.7851 16.108C24.8029 16.1198 24.8216 16.1298 24.8414 16.138C24.8613 16.1463 24.8816 16.1524 24.9026 16.1565C24.9235 16.1607 24.9448 16.1628 24.9661 16.1628H31.1582C31.2116 16.163 31.2649 16.1656 31.3179 16.1709C31.3711 16.1761 31.4237 16.1839 31.4761 16.1945C31.5283 16.2048 31.58 16.2178 31.6312 16.2334C31.6821 16.2489 31.7323 16.2669 31.7816 16.2873C31.8308 16.3076 31.879 16.3304 31.9261 16.3556C31.9731 16.3808 32.0187 16.4082 32.0631 16.4377C32.1074 16.4673 32.1502 16.4992 32.1915 16.5329C32.2326 16.5668 32.2723 16.6026 32.3099 16.6402C32.3477 16.6779 32.3834 16.7174 32.4173 16.7585C32.4512 16.7997 32.4829 16.8424 32.5125 16.8867C32.5422 16.9312 32.5696 16.9767 32.5948 17.0238C32.62 17.0707 32.6428 17.1188 32.6631 17.1681C32.6837 17.2174 32.7017 17.2674 32.7172 17.3183C32.7326 17.3695 32.7458 17.421 32.7561 17.4732C32.7665 17.5256 32.7745 17.5782 32.7797 17.6312C32.785 17.6842 32.7876 17.7373 32.7878 17.7907V23.6512C32.7878 23.6725 32.7898 23.6938 32.7941 23.7148C32.7982 23.7357 32.8043 23.7561 32.8126 23.7757C32.8208 23.7955 32.8308 23.8142 32.8426 23.832C32.8545 23.8498 32.868 23.8663 32.8832 23.8815C32.8984 23.8965 32.9149 23.91 32.9327 23.9219C32.9504 23.9337 32.9692 23.9437 32.989 23.9521C33.0086 23.9602 33.029 23.9663 33.0501 23.9706C33.071 23.9747 33.0923 23.9767 33.1136 23.9767C33.1351 23.9767 33.1563 23.9747 33.1772 23.9706C33.1983 23.9663 33.2187 23.9602 33.2383 23.9521C33.2581 23.9437 33.2768 23.9337 33.2946 23.9219C33.3124 23.91 33.3289 23.8965 33.3441 23.8815C33.3593 23.8663 33.3728 23.8498 33.3847 23.832C33.3965 23.8142 33.4065 23.7955 33.4147 23.7757C33.423 23.7561 33.4291 23.7357 33.4334 23.7148C33.4375 23.6938 33.4395 23.6725 33.4395 23.6512V17.7907C33.4395 17.716 33.4358 17.6418 33.4284 17.5675C33.421 17.4932 33.4099 17.4195 33.3952 17.3463C33.3806 17.2731 33.3624 17.2009 33.3408 17.1294C33.3191 17.0581 33.2939 16.9879 33.2652 16.9189C33.2366 16.85 33.2046 16.7826 33.1694 16.7168C33.1342 16.6511 33.0959 16.5872 33.0544 16.5251C33.0129 16.4631 32.9684 16.4032 32.921 16.3456C32.8736 16.288 32.8234 16.2326 32.7706 16.18C32.7178 16.1272 32.6626 16.0772 32.6048 16.0298C32.547 15.9824 32.4872 15.9381 32.4251 15.8966C32.363 15.8551 32.299 15.8168 32.2332 15.7816C32.1672 15.7464 32.0998 15.7145 32.0309 15.6858C31.9618 15.6573 31.8916 15.6321 31.8203 15.6104C31.7488 15.5887 31.6763 15.5706 31.6032 15.5559C31.5298 15.5413 31.4561 15.5302 31.3818 15.523C31.3075 15.5155 31.2329 15.5118 31.1582 15.5117H24.9661C24.9448 15.5117 24.9235 15.5137 24.9026 15.518C24.8816 15.522 24.8613 15.5283 24.8414 15.5365C24.8216 15.5446 24.8029 15.5546 24.7851 15.5665C24.7674 15.5783 24.7509 15.5919 24.7357 15.6071C24.7207 15.6221 24.7071 15.6385 24.6951 15.6563C24.6833 15.6741 24.6732 15.6928 24.6651 15.7126C24.6569 15.7325 24.6506 15.7528 24.6466 15.7738C24.6423 15.7947 24.6403 15.8158 24.6403 15.8373Z" fill="#17652E"/>
<path d="M20.4034 31.1395C20.3819 31.1395 20.3608 31.1417 20.3399 31.1458C20.3187 31.15 20.2984 31.1562 20.2787 31.1643C20.2589 31.1725 20.2402 31.1825 20.2224 31.1945C20.2046 31.2064 20.1881 31.2199 20.173 31.2349C20.1578 31.2501 20.1442 31.2666 20.1324 31.2842C20.1205 31.3019 20.1105 31.3208 20.1024 31.3405C20.094 31.3603 20.0879 31.3807 20.0837 31.4016C20.0796 31.4225 20.0776 31.4438 20.0776 31.4651C20.0776 31.4864 20.0796 31.5077 20.0837 31.5287C20.0879 31.5496 20.094 31.57 20.1024 31.5898C20.1105 31.6094 20.1205 31.6282 20.1324 31.6459C20.1442 31.6637 20.1578 31.6802 20.173 31.6954C20.1881 31.7104 20.2046 31.7239 20.2224 31.7358C20.2402 31.7476 20.2589 31.7578 20.2787 31.766C20.2984 31.7741 20.3187 31.7802 20.3399 31.7845C20.3608 31.7886 20.3819 31.7908 20.4034 31.7908H22.3588C22.3801 31.7908 22.4014 31.7886 22.4224 31.7845C22.4433 31.7802 22.4637 31.7741 22.4835 31.766C22.5033 31.7578 22.522 31.7476 22.5398 31.7358C22.5576 31.7239 22.5741 31.7104 22.5893 31.6954C22.6045 31.6802 22.6178 31.6637 22.6298 31.6459C22.6417 31.6282 22.6517 31.6094 22.6598 31.5898C22.668 31.57 22.6743 31.5496 22.6784 31.5287C22.6826 31.5077 22.6847 31.4864 22.6847 31.4651C22.6847 31.4438 22.6826 31.4225 22.6784 31.4016C22.6743 31.3807 22.668 31.3603 22.6598 31.3405C22.6517 31.3208 22.6417 31.3019 22.6298 31.2842C22.6178 31.2666 22.6045 31.2501 22.5893 31.2349C22.5741 31.2199 22.5576 31.2064 22.5398 31.1945C22.522 31.1825 22.5033 31.1725 22.4835 31.1643C22.4637 31.1562 22.4433 31.15 22.4224 31.1458C22.4014 31.1417 22.3801 31.1395 22.3588 31.1395H20.4034Z" fill="#17652E"/>
<mask id="mask0_352_174" style="mask-type:luminance" maskUnits="userSpaceOnUse" x="9" y="15" width="20" height="22">
<path d="M9.2949 15.4941H28.8802V37H9.2949V15.4941Z" fill="white"/>
</mask>
<g mask="url(#mask0_352_174)">
<path d="M28.8766 30.1629C28.8766 30.1414 28.8746 30.1203 28.8703 30.0993C28.8662 30.0784 28.8599 30.058 28.8518 30.0382C28.8436 30.0184 28.8336 29.9997 28.8218 29.9819C28.8097 29.9641 28.7962 29.9476 28.7812 29.9326C28.766 29.9174 28.7495 29.9039 28.7318 29.8921C28.714 29.8802 28.6953 29.8702 28.6754 29.862C28.6556 29.8539 28.6352 29.8476 28.6143 29.8435C28.5934 29.8393 28.5721 29.8372 28.5508 29.8372H9.97444V17.7907C9.97444 17.7373 9.97722 17.6842 9.98241 17.6312C9.98778 17.5782 9.99556 17.5256 10.0061 17.4732C10.0165 17.421 10.0295 17.3695 10.045 17.3183C10.0606 17.2674 10.0786 17.2174 10.0989 17.1681C10.1195 17.1188 10.1423 17.0707 10.1675 17.0238C10.1927 16.9767 10.2201 16.9312 10.2497 16.8867C10.2794 16.8424 10.311 16.7997 10.3449 16.7585C10.3788 16.7174 10.4146 16.6779 10.4524 16.6402C10.49 16.6026 10.5294 16.5668 10.5707 16.5329C10.612 16.4992 10.6548 16.4673 10.6991 16.4377C10.7434 16.4082 10.7891 16.3808 10.8362 16.3556C10.8832 16.3304 10.9314 16.3076 10.9807 16.2873C11.03 16.2669 11.0802 16.2489 11.1311 16.2334C11.1822 16.2178 11.2339 16.2048 11.2861 16.1945C11.3386 16.1839 11.3912 16.1761 11.4443 16.1709C11.4973 16.1656 11.5507 16.163 11.604 16.1628H17.7961C17.8174 16.1628 17.8386 16.1607 17.8597 16.1565C17.8806 16.1524 17.901 16.1463 17.9208 16.138C17.9404 16.1298 17.9593 16.1198 17.9771 16.108C17.9949 16.0961 18.0114 16.0826 18.0266 16.0674C18.0416 16.0524 18.0551 16.0359 18.067 16.0181C18.079 16.0003 18.089 15.9816 18.0972 15.9618C18.1053 15.9422 18.1114 15.9218 18.1157 15.9009C18.1199 15.8797 18.122 15.8586 18.122 15.8373C18.122 15.8158 18.1199 15.7947 18.1157 15.7738C18.1114 15.7528 18.1053 15.7325 18.0972 15.7126C18.089 15.6928 18.079 15.6741 18.067 15.6563C18.0551 15.6385 18.0416 15.6221 18.0266 15.6071C18.0114 15.5919 17.9949 15.5783 17.9771 15.5665C17.9593 15.5546 17.9404 15.5446 17.9208 15.5365C17.901 15.5283 17.8806 15.522 17.8597 15.518C17.8386 15.5137 17.8174 15.5117 17.7961 15.5117H11.604C11.5292 15.5118 11.4547 15.5155 11.3804 15.523C11.3062 15.5302 11.2322 15.5413 11.1591 15.5559C11.0859 15.5706 11.0135 15.5887 10.942 15.6104C10.8706 15.6321 10.8003 15.6573 10.7313 15.6858C10.6624 15.7145 10.595 15.7464 10.5291 15.7816C10.4633 15.8168 10.3992 15.8551 10.3371 15.8966C10.2751 15.9381 10.2151 15.9824 10.1575 16.0298C10.0997 16.0772 10.0445 16.1272 9.99167 16.18C9.93869 16.2326 9.88868 16.288 9.84125 16.3456C9.79383 16.4032 9.74937 16.4631 9.70788 16.5251C9.66639 16.5872 9.62804 16.6511 9.59284 16.7168C9.55746 16.7826 9.5256 16.85 9.49707 16.9189C9.46836 16.9879 9.44317 17.0581 9.42149 17.1294C9.39982 17.2009 9.38148 17.2731 9.36685 17.3463C9.35221 17.4195 9.34128 17.4932 9.33387 17.5675C9.32646 17.6418 9.32276 17.716 9.32257 17.7907V30.814C9.32276 30.8887 9.32646 30.9629 9.33387 31.0372C9.34128 31.1115 9.35221 31.1852 9.36685 31.2584C9.38148 31.3316 9.39982 31.4038 9.42149 31.4753C9.44317 31.5466 9.46836 31.6168 9.49707 31.6858C9.5256 31.7547 9.55746 31.8221 9.59284 31.8879C9.62804 31.9536 9.66639 32.0175 9.70788 32.0796C9.74937 32.1416 9.79383 32.2015 9.84125 32.2591C9.88868 32.3167 9.93869 32.3721 9.99167 32.4247C10.0445 32.4775 10.0997 32.5275 10.1575 32.5749C10.2151 32.6223 10.2751 32.6666 10.3371 32.7081C10.3992 32.7496 10.4633 32.788 10.5291 32.8232C10.595 32.8583 10.6624 32.8902 10.7313 32.9189C10.8003 32.9474 10.8706 32.9726 10.942 32.9943C11.0135 33.016 11.0859 33.0341 11.1591 33.0488C11.2322 33.0634 11.3062 33.0745 11.3804 33.0817C11.4547 33.0892 11.5292 33.0929 11.604 33.093H19.0997V36.3489H17.7961C17.7746 36.3489 17.7535 36.3509 17.7324 36.3552C17.7115 36.3592 17.6911 36.3654 17.6713 36.3737C17.6516 36.3818 17.6328 36.3919 17.615 36.4037C17.5972 36.4156 17.5807 36.4291 17.5655 36.4443C17.5505 36.4593 17.537 36.4758 17.5251 36.4935C17.5133 36.5113 17.5031 36.53 17.4949 36.5499C17.4868 36.5695 17.4807 36.5899 17.4764 36.6108C17.4721 36.6319 17.4701 36.653 17.4701 36.6743C17.4701 36.6958 17.4721 36.717 17.4764 36.7379C17.4807 36.7588 17.4868 36.7792 17.4949 36.799C17.5031 36.8188 17.5133 36.8375 17.5251 36.8553C17.537 36.8731 17.5505 36.8896 17.5655 36.9046C17.5807 36.9198 17.5972 36.9333 17.615 36.9452C17.6328 36.957 17.6516 36.967 17.6713 36.9752C17.6911 36.9833 17.7115 36.9896 17.7324 36.9937C17.7535 36.998 17.7746 37 17.7961 37H24.9658C24.9873 37 25.0084 36.998 25.0295 36.9937C25.0504 36.9896 25.0708 36.9833 25.0906 36.9752C25.1103 36.967 25.1292 36.957 25.1469 36.9452C25.1647 36.9333 25.1812 36.9198 25.1962 36.9046C25.2114 36.8896 25.2249 36.8731 25.2368 36.8553C25.2486 36.8375 25.2586 36.8188 25.267 36.799C25.2751 36.7792 25.2812 36.7588 25.2855 36.7379C25.2896 36.717 25.2918 36.6958 25.2918 36.6743C25.2918 36.653 25.2896 36.6319 25.2855 36.6108C25.2812 36.5899 25.2751 36.5695 25.267 36.5499C25.2586 36.53 25.2486 36.5113 25.2368 36.4935C25.2249 36.4758 25.2114 36.4593 25.1962 36.4443C25.1812 36.4291 25.1647 36.4156 25.1469 36.4037C25.1292 36.3919 25.1103 36.3818 25.0906 36.3737C25.0708 36.3654 25.0504 36.3592 25.0295 36.3552C25.0084 36.3509 24.9873 36.3489 24.9658 36.3489H23.6622V33.093H28.5508C28.5721 33.093 28.5934 33.091 28.6143 33.0868C28.6352 33.0827 28.6556 33.0764 28.6754 33.0682C28.6953 33.0601 28.714 33.0501 28.7318 33.0382C28.7495 33.0264 28.766 33.0128 28.7812 32.9976C28.7962 32.9825 28.8097 32.9662 28.8218 32.9484C28.8336 32.9306 28.8436 32.9119 28.8518 32.8921C28.8599 32.8722 28.8662 32.8519 28.8703 32.8309C28.8746 32.81 28.8766 32.7889 28.8766 32.7674C28.8766 32.7461 28.8746 32.725 28.8703 32.7039C28.8662 32.6829 28.8599 32.6625 28.8518 32.6429C28.8436 32.6231 28.8336 32.6044 28.8218 32.5866C28.8097 32.5688 28.7962 32.5523 28.7812 32.5371C28.766 32.5221 28.7495 32.5086 28.7318 32.4968C28.714 32.4849 28.6953 32.4749 28.6754 32.4666C28.6556 32.4584 28.6352 32.4523 28.6143 32.448C28.5934 32.444 28.5721 32.4419 28.5508 32.4419H11.604C11.5507 32.4417 11.4973 32.4391 11.4443 32.434C11.3912 32.4286 11.3386 32.4208 11.2861 32.4102C11.2339 32.3999 11.1822 32.3869 11.1311 32.3713C11.0802 32.3558 11.03 32.3378 10.9807 32.3174C10.9314 32.2971 10.8832 32.2743 10.8362 32.2491C10.7891 32.2239 10.7434 32.1965 10.6991 32.167C10.6548 32.1374 10.612 32.1055 10.5707 32.0718C10.5294 32.0379 10.49 32.0022 10.4524 31.9646C10.4146 31.9268 10.3788 31.8873 10.3449 31.8462C10.311 31.8051 10.2794 31.7623 10.2497 31.718C10.2201 31.6735 10.1927 31.628 10.1675 31.5809C10.1423 31.534 10.1195 31.4859 10.0989 31.4366C10.0786 31.3873 10.0606 31.3373 10.045 31.2864C10.0295 31.2352 10.0165 31.1838 10.0061 31.1315C9.99556 31.0791 9.98778 31.0265 9.98241 30.9735C9.97722 30.9205 9.97444 30.8674 9.97444 30.814V30.4883H28.5508C28.5721 30.4883 28.5934 30.4863 28.6143 30.4821C28.6352 30.478 28.6556 30.4719 28.6754 30.4635C28.6953 30.4554 28.714 30.4454 28.7318 30.4335C28.7495 30.4217 28.766 30.4081 28.7812 30.393C28.7962 30.3779 28.8097 30.3615 28.8218 30.3437C28.8336 30.3259 28.8436 30.3072 28.8518 30.2874C28.8599 30.2677 28.8662 30.2473 28.8703 30.2262C28.8746 30.2053 28.8766 30.1842 28.8766 30.1629ZM23.0103 33.093V36.3489H19.7514V33.093H23.0103Z" fill="#17652E"/>
</g>
<mask id="mask1_352_174" style="mask-type:luminance" maskUnits="userSpaceOnUse" x="18" y="11" width="19" height="26">
<path d="M18.4472 11.558H36.7048V37H18.4472V11.558Z" fill="white"/>
</mask>
<g mask="url(#mask1_352_174)">
<path d="M34.0908 26.5814H33.4389V25.6046C33.4389 25.5728 33.4374 25.5407 33.4341 25.509C33.4309 25.4772 33.4263 25.4455 33.42 25.4142C33.4137 25.3829 33.4059 25.3519 33.3967 25.3212C33.3874 25.2906 33.3765 25.2606 33.3642 25.231C33.352 25.2015 33.3383 25.1726 33.3231 25.1445C33.3081 25.1163 33.2916 25.0889 33.2738 25.0622C33.2561 25.0357 33.237 25.01 33.2168 24.9853C33.1964 24.9605 33.1749 24.937 33.1523 24.9144C33.1297 24.8918 33.106 24.8703 33.0812 24.8499C33.0566 24.8297 33.0308 24.8107 33.0041 24.7929C32.9776 24.7751 32.9502 24.7586 32.9219 24.7436C32.8937 24.7284 32.8648 24.7149 32.8352 24.7025C32.8057 24.6903 32.7755 24.6795 32.745 24.6702C32.7144 24.661 32.6833 24.6532 32.652 24.6469C32.6205 24.6406 32.589 24.636 32.5571 24.6326C32.5253 24.6295 32.4932 24.628 32.4612 24.628H22.0326C22.0111 24.6278 21.99 24.6258 21.9688 24.6215C21.9479 24.6175 21.9275 24.6112 21.9079 24.603C21.8881 24.5949 21.8694 24.5849 21.8516 24.573C21.8338 24.5611 21.8173 24.5476 21.8021 24.5324C21.7871 24.5174 21.7736 24.5009 21.7616 24.4832C21.7497 24.4654 21.7397 24.4467 21.7315 24.4268C21.7232 24.4072 21.7171 24.3868 21.7128 24.3659C21.7088 24.345 21.7065 24.3237 21.7065 24.3024V22.6744H23.3361C23.3489 22.6744 23.3617 22.6737 23.3745 22.6722C23.3872 22.6706 23.4 22.6683 23.4124 22.6654C23.425 22.6624 23.4373 22.6585 23.4493 22.6541C23.4613 22.6496 23.473 22.6444 23.4845 22.6387C23.496 22.6328 23.5071 22.6263 23.5177 22.6191C23.5284 22.6118 23.5386 22.6041 23.5484 22.5957C23.5582 22.5874 23.5673 22.5785 23.576 22.569C23.5847 22.5596 23.5929 22.5496 23.6005 22.5392C23.6079 22.5287 23.6147 22.5179 23.621 22.5066C23.6273 22.4955 23.6329 22.4838 23.6377 22.472C23.6425 22.4601 23.6468 22.4479 23.6501 22.4355C23.6536 22.4231 23.6562 22.4107 23.6583 22.3979C23.6601 22.3853 23.6614 22.3725 23.6618 22.3595C23.6621 22.3467 23.6618 22.334 23.6609 22.3212C23.6597 22.3082 23.6579 22.2956 23.6553 22.283C23.6527 22.2704 23.6494 22.258 23.6453 22.2458L23.1364 20.7211H23.662C23.6835 20.7209 23.7046 20.7188 23.7255 20.7148C23.7466 20.7105 23.767 20.7044 23.7866 20.6962C23.8065 20.6881 23.8252 20.6779 23.8431 20.666C23.8609 20.6542 23.8772 20.6407 23.8924 20.6257C23.9076 20.6105 23.9211 20.594 23.933 20.5762C23.9448 20.5584 23.9548 20.5397 23.963 20.5201C23.9713 20.5002 23.9774 20.4799 23.9817 20.4589C23.9858 20.438 23.9878 20.4167 23.9878 20.3954V19.0931C23.9878 19.0717 23.9858 19.0505 23.9817 19.0296C23.9774 19.0085 23.9713 18.9883 23.963 18.9685C23.9548 18.9487 23.9448 18.9299 23.933 18.9122C23.9211 18.8944 23.9076 18.8779 23.8924 18.8629C23.8772 18.8477 23.8609 18.8342 23.8429 18.8223C23.8252 18.8105 23.8065 18.8005 23.7866 18.7923C23.767 18.7842 23.7466 18.7779 23.7255 18.7738C23.7046 18.7695 23.6835 18.7675 23.662 18.7675H22.9918L24.2531 17.0032C24.2709 16.9784 24.2847 16.9519 24.2949 16.9234C24.3051 16.8949 24.3112 16.8654 24.3131 16.8352C24.3151 16.8048 24.3129 16.775 24.3064 16.7454C24.3001 16.7157 24.2898 16.6876 24.2755 16.6607L21.6682 11.777C21.6543 11.751 21.6373 11.7273 21.6169 11.7058C21.5965 11.6845 21.5737 11.6662 21.5483 11.651C21.523 11.6358 21.4961 11.6243 21.4678 11.6166C21.4392 11.6086 21.4102 11.6047 21.3807 11.6047C21.3512 11.6047 21.3222 11.6086 21.2936 11.6166C21.2653 11.6243 21.2384 11.6358 21.2131 11.651C21.1877 11.6662 21.1649 11.6845 21.1445 11.7058C21.1241 11.7273 21.1071 11.751 21.0932 11.777L18.4859 16.6607C18.4716 16.6876 18.4613 16.7157 18.455 16.7454C18.4485 16.775 18.4463 16.8048 18.4483 16.8352C18.4502 16.8654 18.4563 16.8949 18.4665 16.9234C18.4766 16.9519 18.4905 16.9784 18.5083 17.0032L19.7696 18.7675H19.0994C19.0779 18.7675 19.0568 18.7695 19.0359 18.7738C19.0148 18.7779 18.9944 18.7842 18.9746 18.7923C18.9549 18.8005 18.936 18.8105 18.9183 18.8223C18.9005 18.8342 18.884 18.8477 18.869 18.8629C18.8538 18.8779 18.8403 18.8944 18.8284 18.9122C18.8166 18.9299 18.8066 18.9487 18.7982 18.9685C18.7901 18.9883 18.784 19.0085 18.7797 19.0296C18.7756 19.0505 18.7734 19.0717 18.7734 19.0931V20.3954C18.7734 20.4167 18.7756 20.438 18.7797 20.4589C18.784 20.4799 18.7901 20.5002 18.7982 20.5201C18.8066 20.5397 18.8166 20.5584 18.8284 20.5762C18.8403 20.594 18.8538 20.6105 18.869 20.6257C18.884 20.6407 18.9005 20.6542 18.9183 20.666C18.936 20.6779 18.9549 20.6881 18.9746 20.6962C18.9944 20.7044 19.0148 20.7105 19.0359 20.7148C19.0568 20.7188 19.0779 20.7209 19.0994 20.7211H19.625L19.1161 22.2458C19.112 22.258 19.1087 22.2704 19.1061 22.283C19.1035 22.2956 19.1017 22.3082 19.1005 22.3212C19.0994 22.334 19.0992 22.3467 19.0996 22.3595C19.1 22.3725 19.1013 22.3853 19.1031 22.3979C19.1052 22.4107 19.1078 22.4231 19.1113 22.4355C19.1146 22.4479 19.1189 22.4601 19.1237 22.472C19.1285 22.4838 19.1341 22.4955 19.1404 22.5066C19.1465 22.5179 19.1535 22.5287 19.1609 22.5392C19.1685 22.5496 19.1767 22.5596 19.1854 22.569C19.1939 22.5785 19.2032 22.5874 19.213 22.5957C19.2228 22.6041 19.233 22.6118 19.2436 22.6191C19.2543 22.6263 19.2654 22.6328 19.2769 22.6387C19.2882 22.6444 19.3001 22.6496 19.3121 22.6541C19.3241 22.6585 19.3364 22.6624 19.349 22.6654C19.3614 22.6683 19.3741 22.6706 19.3867 22.6722C19.3995 22.6737 19.4125 22.6744 19.4253 22.6744H21.0549V24.3024C21.0549 24.3344 21.0563 24.3663 21.0597 24.3981C21.0628 24.4298 21.0675 24.4615 21.0738 24.4928C21.08 24.5243 21.0878 24.5552 21.0971 24.5858C21.1064 24.6163 21.1173 24.6464 21.1295 24.676C21.1417 24.7054 21.1554 24.7343 21.1706 24.7625C21.1856 24.7908 21.2021 24.8181 21.2199 24.8447C21.2377 24.8714 21.2568 24.897 21.277 24.9216C21.2973 24.9464 21.3188 24.9702 21.3414 24.9928C21.364 25.0154 21.3877 25.0368 21.4126 25.057C21.4372 25.0774 21.4629 25.0963 21.4896 25.1141C21.5161 25.1319 21.5435 25.1484 21.5719 25.1634C21.6 25.1786 21.6289 25.1923 21.6586 25.2045C21.688 25.2167 21.7182 25.2275 21.7488 25.2367C21.7793 25.2462 21.8105 25.2539 21.8418 25.2601C21.8733 25.2664 21.9048 25.2712 21.9366 25.2743C21.9685 25.2775 22.0005 25.2791 22.0326 25.2791H32.4612C32.4827 25.2791 32.5038 25.2812 32.5247 25.2854C32.5458 25.2897 32.5662 25.2958 32.5858 25.304C32.6057 25.3121 32.6244 25.3223 32.6422 25.3342C32.6599 25.346 32.6764 25.3595 32.6916 25.3745C32.7066 25.3897 32.7201 25.4062 32.7322 25.4238C32.744 25.4416 32.754 25.4605 32.7622 25.4801C32.7704 25.5 32.7766 25.5201 32.7809 25.5413C32.785 25.5622 32.7872 25.5833 32.7872 25.6046V26.5814H32.1353C32.0499 26.5816 31.9649 26.5858 31.8799 26.5942C31.795 26.6027 31.7106 26.6153 31.6268 26.632C31.5433 26.6486 31.4605 26.6694 31.3788 26.6942C31.2971 26.719 31.2169 26.7477 31.1382 26.7805C31.0593 26.8131 30.9822 26.8496 30.907 26.8898C30.8316 26.93 30.7586 26.9739 30.6877 27.0213C30.6165 27.0688 30.5482 27.1195 30.4822 27.1736C30.4163 27.2277 30.3531 27.285 30.2927 27.3452C30.2323 27.4055 30.1751 27.4685 30.1208 27.5345C30.0667 27.6004 30.016 27.6688 29.9686 27.7397C29.9209 27.8107 29.8772 27.8837 29.8368 27.9589C29.7966 28.0341 29.7602 28.1109 29.7274 28.1899C29.6948 28.2686 29.6659 28.3488 29.641 28.4303C29.6162 28.5118 29.5955 28.5944 29.5788 28.6782C29.5619 28.7617 29.5493 28.846 29.541 28.9308C29.5325 29.0157 29.5282 29.1007 29.5282 29.1861V33.4185C29.5282 33.4772 29.5295 33.5358 29.5325 33.5943C29.5353 33.6529 29.5397 33.7114 29.5455 33.7697C29.5512 33.8279 29.5584 33.8861 29.5669 33.9441C29.5757 34.002 29.5857 34.0598 29.597 34.1173C29.6084 34.1749 29.6214 34.2319 29.6357 34.2888C29.6499 34.3457 29.6655 34.4022 29.6825 34.4583C29.6996 34.5142 29.7179 34.57 29.7377 34.6252C29.7576 34.6804 29.7787 34.735 29.8011 34.7891C29.8235 34.8432 29.8472 34.8969 29.8724 34.9499C29.8974 35.0029 29.9237 35.0551 29.9515 35.1068C29.9791 35.1585 30.008 35.2094 30.0382 35.2598C30.0684 35.31 30.0997 35.3597 30.1323 35.4084C30.1649 35.4571 30.1986 35.5049 30.2336 35.552C30.2686 35.5992 30.3048 35.6453 30.3418 35.6907C30.3791 35.7359 30.4174 35.7804 30.4569 35.8237C30.4963 35.8671 30.5367 35.9097 30.5782 35.951C30.6197 35.9925 30.6621 36.0329 30.7056 36.0723C30.749 36.1116 30.7934 36.1499 30.8388 36.187C30.8842 36.2242 30.9303 36.2603 30.9776 36.2952C31.0246 36.3302 31.0726 36.3639 31.1213 36.3965C31.1702 36.4289 31.2197 36.4604 31.2701 36.4904C31.3205 36.5206 31.3714 36.5495 31.4231 36.5771C31.4749 36.6047 31.5274 36.631 31.5804 36.6562C31.6333 36.6812 31.6871 36.7049 31.7411 36.7273C31.7954 36.7497 31.8501 36.7709 31.9053 36.7907C31.9607 36.8103 32.0162 36.8288 32.0724 36.8457C32.1285 36.8627 32.1852 36.8785 32.242 36.8928C32.2989 36.9068 32.3561 36.9198 32.4138 36.9311C32.4712 36.9426 32.529 36.9526 32.587 36.9613C32.6451 36.9698 32.7033 36.977 32.7616 36.9828C32.82 36.9885 32.8785 36.9928 32.9371 36.9957C32.9958 36.9985 33.0543 37 33.1131 37C33.1718 37 33.2303 36.9985 33.289 36.9957C33.3476 36.9928 33.4061 36.9885 33.4645 36.9828C33.5228 36.977 33.581 36.9698 33.6391 36.9613C33.6971 36.9526 33.7549 36.9426 33.8125 36.9311C33.87 36.9198 33.9272 36.9068 33.9841 36.8928C34.0409 36.8785 34.0976 36.8627 34.1537 36.8457C34.2099 36.8288 34.2654 36.8103 34.3208 36.7907C34.376 36.7709 34.4307 36.7497 34.485 36.7273C34.539 36.7049 34.5928 36.6812 34.6457 36.6562C34.6989 36.631 34.7512 36.6047 34.803 36.5771C34.8547 36.5495 34.9056 36.5206 34.956 36.4904C35.0064 36.4604 35.0559 36.4289 35.1048 36.3965C35.1535 36.3639 35.2015 36.3302 35.2485 36.2952C35.2958 36.2603 35.3419 36.2242 35.3873 36.187C35.4327 36.1499 35.4771 36.1116 35.5205 36.0723C35.564 36.0329 35.6064 35.9925 35.6479 35.951C35.6894 35.9097 35.73 35.8671 35.7692 35.8237C35.8087 35.7804 35.847 35.7359 35.8843 35.6907C35.9215 35.6453 35.9575 35.5992 35.9925 35.552C36.0275 35.5049 36.0612 35.4571 36.0938 35.4084C36.1264 35.3597 36.1577 35.31 36.1879 35.2598C36.2181 35.2094 36.247 35.1585 36.2746 35.1068C36.3024 35.0551 36.3287 35.0029 36.3537 34.9499C36.3789 34.8969 36.4026 34.8432 36.425 34.7891C36.4476 34.735 36.4685 34.6804 36.4884 34.6252C36.5082 34.57 36.5265 34.5142 36.5436 34.4583C36.5606 34.4022 36.5763 34.3457 36.5904 34.2888C36.6047 34.2319 36.6177 34.1749 36.6291 34.1173C36.6404 34.0598 36.6506 34.002 36.6592 33.9441C36.6677 33.8861 36.6749 33.8279 36.6806 33.7697C36.6864 33.7114 36.6908 33.6529 36.6936 33.5943C36.6966 33.5358 36.6979 33.4772 36.6979 33.4185V29.1861C36.6979 29.1007 36.6936 29.0157 36.6851 28.9308C36.6768 28.846 36.6642 28.7617 36.6473 28.6782C36.6306 28.5944 36.6099 28.5118 36.5851 28.4303C36.5602 28.3488 36.5313 28.2686 36.4987 28.1899C36.4659 28.1109 36.4295 28.0341 36.3893 27.9589C36.3489 27.8837 36.3052 27.8107 36.2577 27.7397C36.2101 27.6688 36.1594 27.6004 36.1053 27.5345C36.051 27.4685 35.9938 27.4055 35.9334 27.3452C35.8732 27.285 35.81 27.2277 35.7439 27.1736C35.6779 27.1195 35.6096 27.0688 35.5386 27.0213C35.4675 26.9739 35.3945 26.93 35.3191 26.8898C35.2439 26.8496 35.1668 26.8131 35.0881 26.7805C35.0092 26.7477 34.929 26.719 34.8473 26.6942C34.7656 26.6694 34.683 26.6486 34.5993 26.632C34.5155 26.6153 34.4312 26.6027 34.3462 26.5942C34.2612 26.5858 34.1762 26.5816 34.0908 26.5814ZM21.3807 16.1628C21.402 16.1628 21.4233 16.165 21.4442 16.1691C21.4652 16.1733 21.4855 16.1795 21.5054 16.1876C21.5252 16.1958 21.5439 16.2058 21.5617 16.2176C21.5795 16.2297 21.596 16.243 21.6111 16.2582C21.6263 16.2734 21.6399 16.2897 21.6517 16.3075C21.6636 16.3252 21.6736 16.3441 21.6817 16.3638C21.6901 16.3836 21.6962 16.404 21.7002 16.4249C21.7045 16.4458 21.7065 16.467 21.7065 16.4884C21.7065 16.5097 21.7045 16.5311 21.7002 16.552C21.6962 16.5729 21.6901 16.5933 21.6817 16.6129C21.6736 16.6328 21.6636 16.6515 21.6517 16.6692C21.6399 16.687 21.6263 16.7035 21.6111 16.7187C21.596 16.7337 21.5795 16.7472 21.5617 16.7591C21.5439 16.7709 21.5252 16.7809 21.5054 16.7893C21.4855 16.7974 21.4652 16.8035 21.4442 16.8078C21.4233 16.8119 21.402 16.8139 21.3807 16.8139C21.3592 16.8139 21.3381 16.8119 21.3172 16.8078C21.296 16.8035 21.2757 16.7974 21.256 16.7893C21.2362 16.7809 21.2175 16.7709 21.1995 16.7591C21.1817 16.7472 21.1654 16.7337 21.1503 16.7187C21.1351 16.7035 21.1215 16.687 21.1097 16.6692C21.0978 16.6515 21.0878 16.6328 21.0797 16.6129C21.0713 16.5933 21.0652 16.5729 21.061 16.552C21.0569 16.5311 21.0549 16.5097 21.0549 16.4884C21.0549 16.467 21.0569 16.4458 21.0612 16.4249C21.0652 16.404 21.0715 16.3836 21.0797 16.364C21.0878 16.3441 21.098 16.3254 21.1099 16.3076C21.1217 16.2899 21.1353 16.2734 21.1504 16.2584C21.1654 16.2432 21.1819 16.2297 21.1997 16.2178C21.2175 16.206 21.2362 16.1959 21.256 16.1878C21.2759 16.1795 21.2962 16.1733 21.3172 16.1691C21.3381 16.165 21.3592 16.1628 21.3807 16.1628ZM19.1561 16.7891L21.0549 13.2326V15.5717C21.0189 15.5843 20.9839 15.5991 20.9496 15.6158C20.9154 15.6326 20.8824 15.6513 20.8503 15.6719C20.8183 15.6926 20.7877 15.7151 20.7583 15.7393C20.729 15.7636 20.701 15.7893 20.6747 15.8168C20.6484 15.8444 20.6236 15.8733 20.6008 15.9036C20.5779 15.934 20.5567 15.9655 20.5373 15.9983C20.518 16.0311 20.5008 16.065 20.4854 16.0998C20.4702 16.1346 20.4569 16.1702 20.4458 16.2067C20.4347 16.243 20.4256 16.28 20.4189 16.3175C20.4121 16.3549 20.4074 16.3925 20.405 16.4305C20.4026 16.4684 20.4024 16.5064 20.4043 16.5444C20.4063 16.5825 20.4106 16.6202 20.4171 16.6578C20.4235 16.6952 20.4321 16.7322 20.4428 16.7687C20.4536 16.8052 20.4665 16.841 20.4815 16.876C20.4963 16.911 20.5134 16.9449 20.5323 16.978C20.5512 17.011 20.5719 17.0429 20.5947 17.0734C20.6173 17.104 20.6416 17.1331 20.6677 17.1609C20.6938 17.1887 20.7214 17.2148 20.7505 17.2392C20.7796 17.2639 20.8102 17.2867 20.8418 17.3076C20.8737 17.3285 20.9065 17.3476 20.9406 17.3646C20.9746 17.3819 21.0095 17.3969 21.0452 17.41C21.081 17.423 21.1175 17.4339 21.1545 17.4428C21.1916 17.4515 21.229 17.4582 21.2668 17.4626C21.3046 17.4671 21.3425 17.4693 21.3807 17.4693C21.4189 17.4693 21.4566 17.4671 21.4946 17.4626C21.5324 17.4582 21.5698 17.4515 21.6069 17.4428C21.6439 17.4339 21.6804 17.423 21.7162 17.41C21.7519 17.3969 21.7868 17.3819 21.8208 17.3646C21.8547 17.3476 21.8877 17.3285 21.9196 17.3076C21.9512 17.2867 21.9818 17.2639 22.0109 17.2392C22.04 17.2148 22.0676 17.1887 22.0937 17.1609C22.1196 17.1331 22.1441 17.104 22.1667 17.0734C22.1893 17.0429 22.2102 17.011 22.2291 16.978C22.248 16.9449 22.2649 16.911 22.2799 16.876C22.2949 16.841 22.3077 16.8052 22.3184 16.7687C22.3293 16.7322 22.3378 16.6952 22.3443 16.6578C22.3508 16.6202 22.3549 16.5825 22.3569 16.5444C22.359 16.5064 22.3588 16.4684 22.3564 16.4305C22.354 16.3925 22.3493 16.3549 22.3425 16.3175C22.3356 16.28 22.3267 16.243 22.3156 16.2067C22.3045 16.1702 22.2912 16.1346 22.2758 16.0998C22.2606 16.065 22.2432 16.0311 22.2239 15.9983C22.2047 15.9655 22.1835 15.934 22.1606 15.9036C22.1376 15.8733 22.113 15.8444 22.0867 15.8168C22.0604 15.7893 22.0324 15.7636 22.0031 15.7393C21.9737 15.7151 21.9431 15.6926 21.911 15.6719C21.879 15.6513 21.8458 15.6326 21.8118 15.6158C21.7775 15.5991 21.7425 15.5843 21.7065 15.5717V13.2326L23.6051 16.7891L22.1906 18.7675H20.5706L19.1561 16.7891ZM19.4253 19.4186H23.3361V20.0697H19.4253V19.4186ZM20.312 20.7211H22.4494L22.8839 22.0233H19.8775L20.312 20.7211ZM36.0462 29.1861V30.1629H34.0908C34.0906 30.1127 34.0867 30.063 34.0787 30.0136C34.0709 29.9641 34.0595 29.9156 34.0441 29.868C34.0289 29.8204 34.01 29.7742 33.9876 29.7294C33.9652 29.6848 33.9394 29.642 33.9105 29.601C33.8814 29.5603 33.8496 29.5219 33.8146 29.4862C33.7797 29.4503 33.7421 29.4173 33.7023 29.3871C33.6623 29.3571 33.6202 29.33 33.576 29.3065C33.5319 29.2828 33.4861 29.2626 33.4389 29.2461V27.2325H34.0908C34.1549 27.2327 34.2186 27.2359 34.2823 27.2422C34.346 27.2485 34.4094 27.2579 34.4722 27.2705C34.5348 27.2829 34.5968 27.2987 34.6582 27.3172C34.7195 27.3357 34.7795 27.3574 34.8388 27.3818C34.8979 27.4063 34.9557 27.4337 35.0122 27.4639C35.0685 27.4941 35.1233 27.5269 35.1767 27.5624C35.2298 27.598 35.2811 27.636 35.3306 27.6767C35.3802 27.7173 35.4275 27.7601 35.4729 27.8053C35.5181 27.8507 35.561 27.8979 35.6016 27.9474C35.6424 27.9968 35.6803 28.0482 35.7159 28.1013C35.7515 28.1545 35.7844 28.2093 35.8146 28.2656C35.8448 28.3219 35.8722 28.3797 35.8967 28.4388C35.9213 28.4979 35.9428 28.5581 35.9615 28.6193C35.9801 28.6804 35.9956 28.7424 36.0082 28.8051C36.0208 28.8678 36.0303 28.931 36.0366 28.9947C36.0429 29.0583 36.046 29.1222 36.0462 29.1861ZM33.1131 31.1395C33.0917 31.1395 33.0704 31.1374 33.0495 31.1332C33.0286 31.1291 33.0082 31.1228 32.9884 31.1147C32.9686 31.1065 32.9499 31.0965 32.9321 31.0845C32.9143 31.0726 32.8978 31.0591 32.8828 31.0441C32.8676 31.0289 32.8541 31.0126 32.8422 30.9948C32.8304 30.977 32.8204 30.9583 32.812 30.9385C32.8039 30.9187 32.7978 30.8985 32.7935 30.8775C32.7892 30.8564 32.7872 30.8353 32.7872 30.814V30.1629C32.7872 30.1414 32.7892 30.1203 32.7935 30.0993C32.7976 30.0784 32.8037 30.058 32.812 30.0382C32.8202 30.0184 32.8302 29.9997 32.842 29.9819C32.8539 29.9641 32.8674 29.9476 32.8826 29.9326C32.8978 29.9174 32.9143 29.9039 32.9321 29.8921C32.9499 29.8802 32.9686 29.8702 32.9884 29.862C33.008 29.8539 33.0284 29.8476 33.0495 29.8435C33.0704 29.8393 33.0917 29.8372 33.1131 29.8372C33.1345 29.8372 33.1557 29.8393 33.1766 29.8435C33.1977 29.8476 33.2181 29.8539 33.2377 29.862C33.2575 29.8702 33.2762 29.8802 33.294 29.8921C33.3118 29.9039 33.3283 29.9174 33.3435 29.9326C33.3587 29.9476 33.3722 29.9641 33.3841 29.9819C33.3959 29.9997 33.4059 30.0184 33.4141 30.0382C33.4224 30.058 33.4285 30.0784 33.4328 30.0993C33.4369 30.1203 33.4389 30.1414 33.4389 30.1629V30.814C33.4389 30.8353 33.4369 30.8564 33.4326 30.8775C33.4285 30.8985 33.4222 30.9187 33.4141 30.9385C33.4059 30.9583 33.3957 30.977 33.3839 30.9948C33.372 31.0126 33.3585 31.0289 33.3433 31.0441C33.3283 31.0591 33.3118 31.0726 33.294 31.0845C33.2762 31.0965 33.2575 31.1065 33.2377 31.1147C33.2179 31.1228 33.1975 31.1291 33.1766 31.1332C33.1557 31.1374 33.1345 31.1395 33.1131 31.1395ZM32.1353 27.2325H32.7872V29.2461C32.74 29.2626 32.6942 29.2828 32.6501 29.3065C32.606 29.33 32.5638 29.3571 32.524 29.3871C32.484 29.4173 32.4464 29.4503 32.4115 29.4862C32.3767 29.5219 32.3447 29.5603 32.3156 29.601C32.2867 29.642 32.2609 29.6848 32.2385 29.7294C32.2161 29.7742 32.1972 29.8204 32.182 29.868C32.1666 29.9156 32.1552 29.9641 32.1474 30.0136C32.1394 30.063 32.1355 30.1127 32.1353 30.1629H30.1799V29.1861C30.1801 29.1222 30.1833 29.0583 30.1895 28.9947C30.1958 28.931 30.2053 28.8678 30.2179 28.8051C30.2305 28.7424 30.246 28.6804 30.2646 28.6193C30.2833 28.5581 30.3048 28.4979 30.3294 28.4388C30.3539 28.3797 30.3813 28.3219 30.4115 28.2656C30.4417 28.2093 30.4746 28.1545 30.5102 28.1013C30.5458 28.0482 30.5839 27.9968 30.6245 27.9474C30.6651 27.8979 30.708 27.8507 30.7532 27.8053C30.7986 27.7601 30.846 27.7173 30.8955 27.6767C30.945 27.636 30.9963 27.598 31.0494 27.5624C31.1028 27.5269 31.1576 27.4941 31.2139 27.4639C31.2704 27.4337 31.3282 27.4063 31.3873 27.3818C31.4466 27.3574 31.5068 27.3357 31.5679 27.3172C31.6293 27.2987 31.6913 27.2829 31.7541 27.2705C31.8167 27.2579 31.8801 27.2485 31.9438 27.2422C32.0075 27.2359 32.0714 27.2327 32.1353 27.2325ZM33.1131 36.3489C33.0171 36.3487 32.9213 36.3439 32.8257 36.3344C32.7302 36.325 32.6353 36.3107 32.541 36.292C32.4469 36.2731 32.3539 36.2498 32.262 36.222C32.1702 36.194 32.0798 36.1616 31.9912 36.1249C31.9025 36.0881 31.8158 36.0471 31.7311 36.0019C31.6465 35.9565 31.5642 35.9073 31.4844 35.8539C31.4046 35.8006 31.3275 35.7435 31.2532 35.6827C31.1789 35.6218 31.108 35.5575 31.04 35.4895C30.9722 35.4217 30.9077 35.3508 30.8468 35.2767C30.7858 35.2024 30.7288 35.1255 30.6753 35.0457C30.6219 34.966 30.5726 34.8838 30.5272 34.7993C30.482 34.7147 30.4409 34.628 30.4041 34.5394C30.3674 34.4509 30.335 34.3607 30.307 34.2688C30.279 34.1771 30.2557 34.0841 30.237 33.99C30.2181 33.8959 30.204 33.8012 30.1944 33.7057C30.1849 33.6103 30.1801 33.5145 30.1799 33.4185V30.814H32.1353C32.1355 30.864 32.1394 30.9137 32.1474 30.9631C32.1552 31.0126 32.1666 31.0611 32.182 31.1087C32.1972 31.1563 32.2161 31.2027 32.2385 31.2473C32.2609 31.2921 32.2867 31.3349 32.3158 31.3757C32.3447 31.4164 32.3767 31.4548 32.4115 31.4907C32.4465 31.5265 32.484 31.5596 32.524 31.5896C32.5638 31.6198 32.606 31.6467 32.6501 31.6704C32.6942 31.6939 32.74 31.7141 32.7872 31.7308V32.4419C32.7872 32.4632 32.7892 32.4843 32.7935 32.5055C32.7976 32.5264 32.8037 32.5468 32.812 32.5664C32.8202 32.5862 32.8302 32.6049 32.842 32.6227C32.8539 32.6405 32.8674 32.657 32.8826 32.6722C32.8978 32.6872 32.9143 32.7007 32.9321 32.7126C32.9499 32.7244 32.9686 32.7344 32.9884 32.7428C33.008 32.7509 33.0284 32.757 33.0495 32.7613C33.0704 32.7654 33.0917 32.7674 33.1131 32.7674C33.1345 32.7674 33.1557 32.7654 33.1766 32.7613C33.1977 32.757 33.2181 32.7509 33.2377 32.7428C33.2575 32.7344 33.2762 32.7244 33.294 32.7126C33.3118 32.7007 33.3283 32.6872 33.3435 32.6722C33.3587 32.657 33.3722 32.6405 33.3841 32.6227C33.3959 32.6049 33.4059 32.5862 33.4141 32.5664C33.4224 32.5468 33.4285 32.5264 33.4328 32.5055C33.4369 32.4843 33.4389 32.4632 33.4389 32.4419V31.7308C33.4861 31.7141 33.5319 31.6939 33.576 31.6704C33.6202 31.6467 33.6623 31.6198 33.7023 31.5896C33.7421 31.5596 33.7797 31.5265 33.8146 31.4907C33.8496 31.4548 33.8814 31.4164 33.9105 31.3757C33.9394 31.3349 33.9652 31.2921 33.9876 31.2473C34.01 31.2027 34.0289 31.1563 34.0441 31.1087C34.0595 31.0611 34.0709 31.0126 34.0787 30.9631C34.0867 30.9137 34.0906 30.864 34.0908 30.814H36.0462V33.4185C36.046 33.5145 36.0412 33.6103 36.0317 33.7057C36.0223 33.8012 36.008 33.8959 35.9893 33.99C35.9704 34.0841 35.9471 34.1771 35.9191 34.2688C35.8911 34.3607 35.8587 34.4509 35.822 34.5394C35.7852 34.628 35.7441 34.7147 35.6989 34.7993C35.6535 34.8838 35.6042 34.966 35.5508 35.0457C35.4975 35.1255 35.4403 35.2024 35.3793 35.2767C35.3184 35.3508 35.2539 35.4217 35.1861 35.4895C35.1181 35.5575 35.0472 35.6218 34.9729 35.6827C34.8986 35.7435 34.8215 35.8006 34.7417 35.8539C34.6621 35.9073 34.5796 35.9565 34.495 36.0019C34.4103 36.0471 34.3236 36.0881 34.2351 36.1249C34.1463 36.1616 34.0559 36.194 33.9641 36.222C33.8722 36.2498 33.7792 36.2731 33.6851 36.292C33.5908 36.3107 33.4959 36.325 33.4004 36.3344C33.305 36.3439 33.209 36.3487 33.1131 36.3489Z" fill="#17652E"/>
</g>
<path d="M14.8629 10.9536C14.9129 10.9534 14.9628 10.9493 15.0122 10.9415C15.0617 10.9337 15.1102 10.9223 15.158 10.9069C15.2056 10.8917 15.2519 10.8728 15.2968 10.8504C15.3414 10.828 15.3842 10.8024 15.4251 10.7733C15.4659 10.7444 15.5042 10.7126 15.5402 10.6776C15.5761 10.6427 15.6091 10.6053 15.6393 10.5653C15.6695 10.5255 15.6963 10.4834 15.72 10.4393C15.7437 10.3952 15.7639 10.3495 15.7804 10.3024H18.0986C17.8479 10.4466 17.6121 10.6116 17.3909 10.7978C17.1697 10.9838 16.9667 11.1881 16.782 11.4104C16.5973 11.6327 16.4338 11.8694 16.2913 12.121C16.1489 12.3723 16.0299 12.6345 15.9342 12.907H15.5146C15.4933 12.907 15.472 12.9092 15.4511 12.9133C15.4301 12.9175 15.4098 12.9236 15.3899 12.9318C15.3701 12.9399 15.3514 12.9499 15.3336 12.962C15.3158 12.9738 15.2993 12.9874 15.2842 13.0024C15.2692 13.0175 15.2556 13.034 15.2438 13.0516C15.2317 13.0694 15.2217 13.0883 15.2136 13.1079C15.2054 13.1278 15.1991 13.1481 15.1951 13.1691C15.1908 13.19 15.1888 13.2113 15.1888 13.2326V14.5349C15.1888 14.5564 15.1908 14.5775 15.1951 14.5984C15.1991 14.6193 15.2054 14.6397 15.2136 14.6595C15.2217 14.6794 15.2317 14.6981 15.2438 14.7159C15.2556 14.7336 15.2692 14.7499 15.2842 14.7651C15.2993 14.7803 15.3158 14.7938 15.3336 14.8057C15.3514 14.8175 15.3701 14.8276 15.3899 14.8357C15.4098 14.8439 15.4301 14.8502 15.4511 14.8542C15.472 14.8585 15.4933 14.8605 15.5146 14.8605H16.8183C16.8396 14.8605 16.8609 14.8585 16.8819 14.8542C16.9028 14.8502 16.9232 14.8439 16.943 14.8357C16.9628 14.8276 16.9815 14.8175 16.9993 14.8057C17.0171 14.7938 17.0336 14.7803 17.0488 14.7651C17.0638 14.7499 17.0773 14.7336 17.0892 14.7159C17.1012 14.6981 17.1112 14.6794 17.1194 14.6595C17.1275 14.6397 17.1338 14.6193 17.1379 14.5984C17.1421 14.5775 17.1442 14.5564 17.1442 14.5349V13.2326C17.1442 13.2113 17.1421 13.19 17.1379 13.1691C17.1338 13.1481 17.1275 13.1278 17.1194 13.1079C17.1112 13.0883 17.1012 13.0694 17.0892 13.0516C17.0773 13.034 17.0638 13.0175 17.0488 13.0024C17.0336 12.9874 17.0171 12.9738 16.9993 12.962C16.9815 12.9499 16.9628 12.9399 16.943 12.9318C16.9232 12.9236 16.9028 12.9175 16.8819 12.9133C16.8609 12.9092 16.8396 12.907 16.8183 12.907H16.6312C16.6698 12.8138 16.7116 12.7221 16.7568 12.6319C16.802 12.5417 16.8504 12.4531 16.9019 12.3664C16.9534 12.2795 17.008 12.1949 17.0656 12.1121C17.1232 12.0293 17.1838 11.9485 17.2474 11.8702C17.3107 11.7916 17.3768 11.7155 17.4459 11.6417C17.5149 11.568 17.5864 11.4969 17.6603 11.4283C17.7344 11.3598 17.8109 11.2939 17.8896 11.2309C17.9683 11.1677 18.0493 11.1075 18.1325 11.0503C18.2156 10.993 18.3007 10.9388 18.3877 10.8876C18.4748 10.8365 18.5635 10.7885 18.6539 10.7437C18.7445 10.6989 18.8364 10.6574 18.9299 10.6192C19.0233 10.581 19.1181 10.5464 19.2141 10.5149C19.31 10.4836 19.4069 10.4556 19.5049 10.4314C19.6029 10.4069 19.7016 10.386 19.8011 10.3688C19.9006 10.3515 20.0006 10.3378 20.101 10.3276C20.2014 10.3174 20.3022 10.311 20.4032 10.3082V10.6279C20.4032 10.6494 20.4052 10.6705 20.4095 10.6915C20.4135 10.7124 20.4198 10.7328 20.428 10.7526C20.4361 10.7722 20.4461 10.7911 20.458 10.8089C20.47 10.8267 20.4836 10.843 20.4986 10.8582C20.5137 10.8734 20.5302 10.8867 20.548 10.8987C20.5658 10.9106 20.5845 10.9206 20.6043 10.9287C20.6242 10.9369 20.6445 10.9432 20.6655 10.9473C20.6864 10.9515 20.7077 10.9536 20.729 10.9536H22.0327C22.054 10.9536 22.0752 10.9515 22.0963 10.9473C22.1172 10.9432 22.1376 10.9369 22.1574 10.9287C22.1772 10.9206 22.1959 10.9106 22.2137 10.8987C22.2315 10.8867 22.248 10.8734 22.2632 10.8582C22.2782 10.843 22.2917 10.8267 22.3036 10.8089C22.3156 10.7911 22.3256 10.7722 22.3338 10.7526C22.3419 10.7328 22.348 10.7124 22.3523 10.6915C22.3565 10.6705 22.3586 10.6494 22.3586 10.6279V10.3082C22.4595 10.311 22.5601 10.3174 22.6607 10.3276C22.7611 10.3378 22.8611 10.3515 22.9606 10.3688C23.0601 10.386 23.1588 10.4069 23.2568 10.4314C23.3548 10.4556 23.4517 10.4836 23.5477 10.5149C23.6436 10.5464 23.7385 10.581 23.8318 10.6192C23.9254 10.6574 24.0172 10.6989 24.1078 10.7437C24.1982 10.7885 24.287 10.8365 24.374 10.8876C24.4611 10.9388 24.5461 10.993 24.6293 11.0503C24.7125 11.1075 24.7934 11.1677 24.8721 11.2309C24.9509 11.2939 25.0274 11.3598 25.1015 11.4283C25.1754 11.4969 25.2469 11.568 25.3158 11.6417C25.3847 11.7155 25.451 11.7916 25.5144 11.8702C25.5779 11.9485 25.6385 12.0293 25.6961 12.1121C25.7537 12.1949 25.8084 12.2795 25.8599 12.3664C25.9113 12.4531 25.9597 12.5417 26.0049 12.6319C26.0501 12.7221 26.092 12.8138 26.1305 12.907H25.9434C25.9221 12.907 25.9008 12.9092 25.8799 12.9133C25.8589 12.9175 25.8385 12.9236 25.8187 12.9318C25.7989 12.9399 25.7802 12.9499 25.7624 12.962C25.7446 12.9738 25.7281 12.9874 25.713 13.0024C25.6979 13.0175 25.6844 13.034 25.6724 13.0516C25.6605 13.0694 25.6505 13.0883 25.6424 13.1079C25.6342 13.1278 25.6279 13.1481 25.6239 13.1691C25.6196 13.19 25.6176 13.2113 25.6176 13.2326V14.5349C25.6176 14.5564 25.6196 14.5775 25.6239 14.5984C25.6279 14.6193 25.6342 14.6397 25.6424 14.6595C25.6505 14.6794 25.6605 14.6981 25.6724 14.7159C25.6844 14.7336 25.6979 14.7499 25.713 14.7651C25.7281 14.7803 25.7446 14.7938 25.7624 14.8057C25.7802 14.8175 25.7989 14.8276 25.8187 14.8357C25.8385 14.8439 25.8589 14.8502 25.8799 14.8542C25.9008 14.8585 25.9221 14.8605 25.9434 14.8605H27.2469C27.2684 14.8605 27.2896 14.8585 27.3107 14.8542C27.3316 14.8502 27.352 14.8439 27.3718 14.8357C27.3914 14.8276 27.4103 14.8175 27.4281 14.8057C27.4459 14.7938 27.4624 14.7803 27.4774 14.7651C27.4926 14.7499 27.5061 14.7336 27.518 14.7159C27.5298 14.6981 27.54 14.6794 27.5482 14.6595C27.5563 14.6397 27.5624 14.6193 27.5667 14.5984C27.5709 14.5775 27.573 14.5564 27.573 14.5349V13.2326C27.573 13.2113 27.5709 13.19 27.5667 13.1691C27.5624 13.1481 27.5563 13.1278 27.5482 13.1079C27.54 13.0883 27.5298 13.0694 27.518 13.0516C27.5061 13.034 27.4926 13.0175 27.4774 13.0024C27.4624 12.9874 27.4459 12.9738 27.4281 12.962C27.4103 12.9499 27.3914 12.9399 27.3718 12.9318C27.352 12.9236 27.3316 12.9175 27.3107 12.9133C27.2896 12.9092 27.2684 12.907 27.2469 12.907H26.8276C26.7318 12.6345 26.6129 12.3723 26.4704 12.121C26.328 11.8694 26.1644 11.6327 25.9797 11.4104C25.795 11.1881 25.592 10.9838 25.3708 10.7978C25.1496 10.6116 24.9138 10.4466 24.6632 10.3024H26.9813C26.9939 10.3382 27.0087 10.3732 27.0254 10.4075C27.0423 10.4416 27.061 10.4747 27.0817 10.5066C27.1023 10.5386 27.1247 10.5692 27.149 10.5986C27.1732 10.6279 27.1992 10.6557 27.2266 10.682C27.2542 10.7083 27.2831 10.7329 27.3135 10.7559C27.3438 10.7789 27.3755 10.8 27.4083 10.8193C27.4411 10.8385 27.475 10.8558 27.51 10.8711C27.5448 10.8863 27.5804 10.8997 27.6169 10.9108C27.6532 10.9219 27.6902 10.9308 27.7277 10.9376C27.7651 10.9445 27.8029 10.9491 27.8408 10.9515C27.879 10.9539 27.917 10.9541 27.9549 10.9521C27.9929 10.9501 28.0307 10.9458 28.0683 10.9395C28.1059 10.933 28.143 10.9243 28.1795 10.9136C28.216 10.9028 28.2517 10.89 28.2867 10.875C28.3217 10.8602 28.3558 10.8432 28.389 10.8243C28.4219 10.8054 28.4538 10.7846 28.4844 10.762C28.5151 10.7394 28.5442 10.715 28.572 10.689C28.5998 10.6629 28.6259 10.6353 28.6505 10.6062C28.675 10.5772 28.6978 10.5468 28.7187 10.5151C28.7398 10.4832 28.7589 10.4505 28.7759 10.4164C28.7932 10.3825 28.8082 10.3476 28.8213 10.3119C28.8343 10.2761 28.8454 10.2396 28.8541 10.2028C28.863 10.1657 28.8695 10.1283 28.8739 10.0905C28.8784 10.0527 28.8806 10.0148 28.8806 9.97679C28.8806 9.93862 28.8784 9.90084 28.8739 9.86305C28.8695 9.82526 28.863 9.78784 28.8541 9.75079C28.8452 9.71374 28.8343 9.67743 28.8213 9.64168C28.8082 9.60593 28.7932 9.5711 28.7759 9.53702C28.7589 9.50312 28.7398 9.47015 28.7187 9.43847C28.6978 9.40679 28.675 9.37623 28.6505 9.34714C28.6259 9.31806 28.5998 9.29046 28.572 9.26453C28.5442 9.23841 28.5149 9.21414 28.4844 9.19154C28.4538 9.16894 28.4219 9.14819 28.3888 9.12911C28.3558 9.11022 28.3217 9.09336 28.2867 9.07836C28.2517 9.06354 28.216 9.05057 28.1795 9.03983C28.1428 9.02908 28.1057 9.02056 28.0683 9.01408C28.0307 9.00759 27.9929 9.00352 27.9549 9.00148C27.9168 8.99944 27.8788 8.99963 27.8408 9.00204C27.8029 9.00445 27.7651 9.00908 27.7277 9.01593C27.6902 9.02278 27.6532 9.03168 27.6167 9.04279C27.5804 9.05391 27.5446 9.06724 27.5098 9.08243C27.475 9.09781 27.4411 9.11504 27.4083 9.1343C27.3753 9.15357 27.3438 9.17468 27.3135 9.19765C27.2831 9.22062 27.254 9.24526 27.2266 9.27157C27.1992 9.29787 27.1732 9.32566 27.149 9.35511C27.1247 9.38438 27.1023 9.41494 27.0815 9.44699C27.061 9.47904 27.0423 9.51201 27.0254 9.5461C27.0087 9.58037 26.9939 9.61538 26.9811 9.65113H22.3586V9.32566C22.3586 9.30417 22.3565 9.28305 22.3523 9.26212C22.348 9.24119 22.3419 9.22081 22.3338 9.20099C22.3256 9.18135 22.3156 9.16246 22.3036 9.14467C22.2917 9.12689 22.2782 9.11059 22.2632 9.0954C22.248 9.08021 22.2315 9.06687 22.2137 9.05483C22.1959 9.04298 22.1772 9.03297 22.1574 9.02482C22.1376 9.01667 22.1172 9.01056 22.0963 9.0063C22.0752 9.00222 22.054 9 22.0327 9H20.729C20.7077 9 20.6864 9.00222 20.6655 9.0063C20.6445 9.01056 20.6242 9.01667 20.6043 9.02482C20.5845 9.03297 20.5658 9.04298 20.548 9.05483C20.5302 9.06687 20.5137 9.08021 20.4986 9.0954C20.4836 9.11059 20.47 9.12689 20.458 9.14467C20.4461 9.16246 20.4361 9.18135 20.428 9.20099C20.4198 9.22081 20.4135 9.24119 20.4095 9.26212C20.4052 9.28305 20.4032 9.30417 20.4032 9.32566V9.65113H15.7804C15.7606 9.59537 15.7358 9.54165 15.706 9.49034C15.6761 9.43884 15.642 9.39068 15.6035 9.34548C15.5648 9.30028 15.5226 9.25897 15.4764 9.22155C15.4303 9.18413 15.381 9.15116 15.329 9.12282C15.2767 9.09429 15.2225 9.07076 15.166 9.05224C15.1095 9.03371 15.0519 9.02038 14.993 9.01241C14.934 9.00445 14.875 9.00185 14.8157 9.00445C14.7562 9.00722 14.6977 9.01538 14.6397 9.0289C14.5819 9.04242 14.5258 9.06094 14.4713 9.08466C14.4169 9.10837 14.365 9.13689 14.3157 9.17005C14.2664 9.20321 14.2205 9.24063 14.1781 9.28212C14.1357 9.32362 14.0973 9.36863 14.063 9.41717C14.029 9.46589 13.9993 9.51701 13.9745 9.57092C13.9497 9.62482 13.9298 9.68058 13.9152 9.73819C13.9006 9.7958 13.8913 9.85415 13.8874 9.91343C13.8834 9.97252 13.8848 10.0316 13.8917 10.0907C13.8985 10.1496 13.9106 10.2074 13.928 10.2643C13.9454 10.321 13.9678 10.3758 13.9952 10.4284C14.0227 10.481 14.0547 10.5308 14.0912 10.5777C14.1277 10.6246 14.1681 10.6676 14.2125 10.707C14.257 10.7465 14.3046 10.7817 14.3554 10.8124C14.4063 10.8432 14.4595 10.8691 14.515 10.8902C14.5706 10.9111 14.6277 10.9271 14.686 10.9376C14.7445 10.9484 14.8035 10.9536 14.8629 10.9536ZM16.4923 14.2094H15.8406V13.5583H16.4923V14.2094ZM26.9211 14.2094H26.2694V13.5583H26.9211V14.2094ZM27.8988 9.65113C27.9203 9.65113 27.9414 9.65335 27.9624 9.65743C27.9835 9.66169 28.0039 9.6678 28.0235 9.67595C28.0433 9.6841 28.062 9.69429 28.08 9.70615C28.0978 9.718 28.1141 9.73152 28.1293 9.74653C28.1445 9.76172 28.158 9.7782 28.1698 9.79599C28.1817 9.81377 28.1917 9.83248 28.1998 9.85212C28.2082 9.87194 28.2143 9.89231 28.2185 9.91325C28.2226 9.93418 28.2247 9.95548 28.2247 9.97679C28.2247 9.99809 28.2226 10.0194 28.2185 10.0403C28.2143 10.0613 28.2082 10.0816 28.1998 10.1015C28.1917 10.1211 28.1817 10.14 28.1698 10.1578C28.158 10.1754 28.1445 10.1919 28.1293 10.207C28.1141 10.222 28.0978 10.2356 28.08 10.2474C28.062 10.2595 28.0433 10.2695 28.0235 10.2776C28.0039 10.2858 27.9835 10.2919 27.9624 10.2961C27.9414 10.3002 27.9203 10.3024 27.8988 10.3024C27.8775 10.3024 27.8562 10.3002 27.8353 10.2961C27.8143 10.2919 27.794 10.2858 27.7741 10.2776C27.7543 10.2695 27.7356 10.2595 27.7178 10.2474C27.7001 10.2356 27.6836 10.222 27.6684 10.207C27.6532 10.1919 27.6397 10.1754 27.6278 10.1578C27.616 10.14 27.6059 10.1211 27.5978 10.1015C27.5895 10.0816 27.5834 10.0613 27.5793 10.0403C27.575 10.0194 27.573 9.99809 27.573 9.97679C27.573 9.95548 27.575 9.93418 27.5793 9.91325C27.5835 9.89231 27.5896 9.87194 27.5978 9.8523C27.6061 9.83248 27.6161 9.81377 27.628 9.79599C27.6398 9.7782 27.6534 9.76172 27.6686 9.74671C27.6836 9.73152 27.7001 9.718 27.7178 9.70615C27.7356 9.69429 27.7545 9.68429 27.7741 9.67614C27.794 9.66799 27.8143 9.66169 27.8353 9.65761C27.8562 9.65335 27.8775 9.65131 27.8988 9.65113ZM21.055 9.65113H21.7067V10.3024H21.055V9.65113ZM14.8629 9.65113C14.8842 9.65113 14.9055 9.65335 14.9265 9.65743C14.9474 9.66169 14.9678 9.6678 14.9876 9.67595C15.0074 9.6841 15.0261 9.69429 15.0439 9.70615C15.0617 9.718 15.0782 9.73152 15.0934 9.74653C15.1084 9.76172 15.1219 9.7782 15.1339 9.79599C15.1458 9.81377 15.1558 9.83248 15.1639 9.85212C15.1721 9.87194 15.1784 9.89231 15.1825 9.91325C15.1867 9.93418 15.1888 9.95548 15.1888 9.97679C15.1888 9.99809 15.1867 10.0194 15.1825 10.0403C15.1784 10.0613 15.1721 10.0816 15.1639 10.1015C15.1558 10.1211 15.1458 10.14 15.1339 10.1578C15.1219 10.1754 15.1084 10.1919 15.0934 10.207C15.0782 10.222 15.0617 10.2356 15.0439 10.2474C15.0261 10.2595 15.0074 10.2695 14.9876 10.2776C14.9678 10.2858 14.9474 10.2919 14.9265 10.2961C14.9055 10.3002 14.8842 10.3024 14.8629 10.3024C14.8414 10.3024 14.8203 10.3002 14.7994 10.2961C14.7783 10.2919 14.7579 10.2858 14.7381 10.2776C14.7184 10.2695 14.6995 10.2595 14.6817 10.2474C14.664 10.2356 14.6475 10.222 14.6325 10.207C14.6173 10.1919 14.6038 10.1754 14.5919 10.1578C14.5801 10.14 14.57 10.1211 14.5617 10.1015C14.5536 10.0816 14.5474 10.0613 14.5432 10.0403C14.5391 10.0194 14.5369 9.99809 14.5369 9.97679C14.5371 9.95548 14.5391 9.93418 14.5434 9.91325C14.5474 9.89231 14.5537 9.87194 14.5619 9.8523C14.57 9.83248 14.5801 9.81377 14.5921 9.79599C14.6039 9.7782 14.6175 9.76172 14.6325 9.74671C14.6477 9.73152 14.6642 9.718 14.6819 9.70615C14.6997 9.69429 14.7184 9.68429 14.7382 9.67614C14.7579 9.66799 14.7783 9.66169 14.7994 9.65761C14.8203 9.65335 14.8414 9.65131 14.8629 9.65113Z" fill="#17652E"/>
<path d="M31.8101 23.9767C31.8314 23.9767 31.8527 23.9746 31.8736 23.9706C31.8946 23.9663 31.9149 23.9602 31.9348 23.952C31.9546 23.9437 31.9733 23.9337 31.9911 23.9219C32.0089 23.91 32.0253 23.8965 32.0405 23.8815C32.0555 23.8663 32.0691 23.8498 32.0811 23.832C32.093 23.8142 32.103 23.7955 32.1111 23.7757C32.1193 23.7561 32.1256 23.7357 32.1296 23.7148C32.1339 23.6938 32.1359 23.6725 32.1359 23.6512V17.7907C32.1359 17.7588 32.1343 17.7268 32.1311 17.6951C32.128 17.6632 32.1233 17.6316 32.117 17.6003C32.1107 17.569 32.103 17.5378 32.0937 17.5073C32.0843 17.4767 32.0735 17.4467 32.0613 17.4171C32.0491 17.3876 32.0354 17.3587 32.0202 17.3305C32.0052 17.3024 31.9887 17.275 31.9709 17.2483C31.9531 17.2218 31.934 17.1961 31.9136 17.1714C31.8935 17.1466 31.872 17.1231 31.8494 17.1003C31.8266 17.0777 31.8029 17.0564 31.7782 17.036C31.7534 17.0158 31.7278 16.9967 31.7012 16.979C31.6745 16.9612 31.6471 16.9447 31.6189 16.9297C31.5908 16.9145 31.5619 16.9008 31.5322 16.8886C31.5026 16.8763 31.4726 16.8656 31.442 16.8563C31.4113 16.8471 31.3803 16.8393 31.3488 16.833C31.3175 16.8267 31.2859 16.8219 31.254 16.8187C31.2221 16.8156 31.1903 16.8141 31.1582 16.8139H24.9661C24.9448 16.8139 24.9235 16.8161 24.9026 16.8202C24.8816 16.8245 24.8613 16.8306 24.8414 16.8387C24.8216 16.8469 24.8029 16.8571 24.7851 16.8689C24.7674 16.8808 24.7509 16.8943 24.7357 16.9093C24.7207 16.9245 24.7071 16.941 24.6951 16.9588C24.6833 16.9765 24.6732 16.9953 24.6651 17.0149C24.6569 17.0347 24.6506 17.0551 24.6466 17.076C24.6423 17.097 24.6403 17.1183 24.6403 17.1396C24.6403 17.1609 24.6423 17.1822 24.6466 17.2031C24.6506 17.224 24.6569 17.2444 24.6651 17.2642C24.6732 17.2839 24.6833 17.3028 24.6951 17.3204C24.7071 17.3381 24.7207 17.3546 24.7357 17.3698C24.7509 17.3848 24.7674 17.3983 24.7851 17.4102C24.8029 17.4222 24.8216 17.4322 24.8414 17.4404C24.8613 17.4485 24.8816 17.4547 24.9026 17.4589C24.9235 17.463 24.9448 17.4652 24.9661 17.4652H31.1582C31.1797 17.4652 31.2008 17.4673 31.2218 17.4715C31.2429 17.4756 31.2631 17.4819 31.2829 17.49C31.3027 17.4982 31.3214 17.5082 31.3392 17.5202C31.357 17.5321 31.3735 17.5454 31.3887 17.5606C31.4037 17.5758 31.4172 17.5921 31.4291 17.6099C31.4409 17.6277 31.4511 17.6464 31.4592 17.6662C31.4674 17.686 31.4737 17.7062 31.4778 17.7272C31.482 17.7483 31.4841 17.7694 31.4843 17.7907V23.6512C31.4843 23.6725 31.4863 23.6938 31.4904 23.7148C31.4946 23.7357 31.5007 23.7561 31.5089 23.7757C31.5172 23.7955 31.5272 23.8142 31.5391 23.832C31.5509 23.8498 31.5645 23.8663 31.5797 23.8815C31.5947 23.8965 31.6111 23.91 31.6289 23.9219C31.6467 23.9337 31.6656 23.9437 31.6854 23.952C31.7051 23.9602 31.7254 23.9663 31.7466 23.9706C31.7675 23.9746 31.7886 23.9767 31.8101 23.9767Z" fill="#17652E"/>
<path d="M28.5511 28.535H11.2783V17.7907C11.2783 17.7694 11.2805 17.7483 11.2848 17.7272C11.2888 17.7062 11.2951 17.686 11.3033 17.6662C11.3114 17.6464 11.3214 17.6277 11.3335 17.6099C11.3453 17.5921 11.3589 17.5758 11.3739 17.5606C11.3891 17.5454 11.4055 17.5321 11.4233 17.5202C11.4411 17.5082 11.4598 17.4982 11.4796 17.49C11.4993 17.4819 11.5197 17.4756 11.5408 17.4715C11.5617 17.4673 11.5828 17.4652 11.6043 17.4652H17.7964C17.8177 17.4652 17.8388 17.463 17.86 17.4589C17.8809 17.4547 17.9013 17.4485 17.9211 17.4404C17.9407 17.4322 17.9596 17.4222 17.9774 17.4102C17.9952 17.3983 18.0117 17.3848 18.0269 17.3698C18.0419 17.3546 18.0554 17.3381 18.0672 17.3204C18.0793 17.3028 18.0893 17.2839 18.0974 17.2642C18.1056 17.2444 18.1117 17.224 18.116 17.2031C18.1202 17.1822 18.1223 17.1609 18.1223 17.1396C18.1223 17.1183 18.1202 17.097 18.116 17.076C18.1117 17.0551 18.1056 17.0347 18.0974 17.0149C18.0893 16.9953 18.0793 16.9765 18.0672 16.9588C18.0554 16.941 18.0419 16.9245 18.0269 16.9093C18.0117 16.8943 17.9952 16.8808 17.9774 16.8689C17.9596 16.8571 17.9407 16.8469 17.9211 16.8387C17.9013 16.8306 17.8809 16.8245 17.86 16.8202C17.8388 16.8161 17.8177 16.8139 17.7964 16.8139H11.6043C11.5723 16.8141 11.5402 16.8156 11.5084 16.8187C11.4767 16.8219 11.445 16.8267 11.4135 16.833C11.3822 16.8393 11.3513 16.8471 11.3205 16.8563C11.29 16.8656 11.2598 16.8763 11.2303 16.8886C11.2007 16.9008 11.1718 16.9145 11.1436 16.9297C11.1153 16.9447 11.0879 16.9612 11.0614 16.979C11.0347 16.9967 11.0089 17.0158 10.9843 17.036C10.9595 17.0564 10.9358 17.0777 10.9132 17.1003C10.8906 17.1231 10.8691 17.1466 10.8489 17.1714C10.8285 17.1961 10.8094 17.2218 10.7917 17.2483C10.7739 17.275 10.7574 17.3024 10.7424 17.3305C10.7272 17.3587 10.7135 17.3876 10.7013 17.4171C10.689 17.4467 10.6783 17.4767 10.6688 17.5073C10.6596 17.5378 10.6518 17.569 10.6455 17.6003C10.6392 17.6316 10.6346 17.6632 10.6314 17.6951C10.6283 17.7268 10.6266 17.7588 10.6266 17.7907V28.8604C10.6266 28.8819 10.6286 28.903 10.6329 28.924C10.637 28.9449 10.6431 28.9653 10.6514 28.9851C10.6596 29.0047 10.6696 29.0236 10.6814 29.0414C10.6933 29.0592 10.7068 29.0755 10.722 29.0907C10.7372 29.1059 10.7537 29.1194 10.7715 29.1313C10.7892 29.1431 10.808 29.1531 10.8278 29.1613C10.8474 29.1694 10.868 29.1757 10.8889 29.1798C10.9098 29.184 10.9311 29.1861 10.9524 29.1861H28.5511C28.5724 29.1861 28.5937 29.184 28.6146 29.1798C28.6355 29.1757 28.6559 29.1694 28.6757 29.1613C28.6956 29.1531 28.7143 29.1431 28.732 29.1313C28.7498 29.1194 28.7663 29.1059 28.7815 29.0907C28.7965 29.0755 28.81 29.0592 28.8221 29.0414C28.8339 29.0236 28.8439 29.0047 28.8521 28.9851C28.8602 28.9653 28.8665 28.9449 28.8706 28.924C28.8749 28.903 28.8769 28.8819 28.8769 28.8604C28.8769 28.8391 28.8749 28.818 28.8706 28.7969C28.8665 28.776 28.8602 28.7556 28.8521 28.7359C28.8439 28.7161 28.8339 28.6974 28.8221 28.6796C28.81 28.6618 28.7965 28.6454 28.7815 28.6302C28.7663 28.6152 28.7498 28.6016 28.732 28.5898C28.7143 28.5779 28.6956 28.5679 28.6757 28.5596C28.6559 28.5514 28.6355 28.5453 28.6146 28.5411C28.5937 28.537 28.5724 28.535 28.5511 28.535Z" fill="#17652E"/>
</svg>
