<svg width="46" height="46" viewBox="0 0 46 46" fill="none" xmlns="http://www.w3.org/2000/svg">
<rect width="46" height="46" rx="23" fill="#F74949" fill-opacity="0.1"/>
<path d="M11.2948 14.1886H34.7044C36.4367 14.1886 38.0106 14.8953 39.1512 16.0329C40.2919 17.1713 41 18.7415 41 20.4685V25.5315C41 27.2585 40.2919 28.8287 39.1512 29.9671C38.0106 31.1047 36.4367 31.8114 34.7044 31.8114H11.2948C9.56331 31.8114 7.98942 31.1047 6.84878 29.9671C5.70814 28.8294 5 27.2593 5 25.5315V20.4685C5 18.7415 5.70814 17.1713 6.84878 16.0329C7.98942 14.8953 9.56331 14.1886 11.2948 14.1886ZM34.7044 14.9931H11.2948C9.78591 14.9931 8.41445 15.6094 7.41947 16.6021C6.42449 17.5948 5.80674 18.9633 5.80674 20.4685V25.5315C5.80674 27.0367 6.42449 28.4052 7.41947 29.3979C8.41445 30.3906 9.78591 31.0069 11.2948 31.0069H34.7044C36.2141 31.0069 37.5855 30.3906 38.5805 29.3979C39.5755 28.4052 40.1933 27.0367 40.1933 25.5315V20.4685C40.1933 18.9633 39.5755 17.5948 38.5805 16.6021C37.5855 15.6094 36.2141 14.9931 34.7044 14.9931Z" fill="#F74949"/>
<path d="M17.9193 25.8397V20.1596H19.1257V24.8455H21.4353V25.8397H17.9193ZM22.4243 25.8397V20.1596H23.6314V25.8397H22.4243ZM28.312 20.1596H29.5311L27.5957 25.8397H26.2787L24.347 20.1596H25.5661L26.6373 23.5397C26.6971 23.7392 26.7583 23.9715 26.8218 24.2367C26.886 24.5033 26.9256 24.6878 26.9421 24.7909C26.9697 24.5519 27.0668 24.1358 27.2326 23.539L28.312 20.1596ZM33.5245 25.8397H30.246V20.1596H33.5245V21.1464H31.4531V22.3954H33.3803V23.3821H31.4531V24.8455H33.5245V25.8397Z" fill="#F74949"/>
<path fill-rule="evenodd" clip-rule="evenodd" d="M12.8747 20.4724C14.2738 20.2872 15.5586 21.2694 15.7439 22.6655C15.9299 24.0616 14.9453 25.3427 13.5455 25.528C12.1464 25.7132 10.8616 24.7309 10.6763 23.3348C10.4903 21.9395 11.4749 20.6577 12.8747 20.4724Z" fill="#F74949"/>
</svg>
