<svg width="46" height="46" viewBox="0 0 46 46" fill="none" xmlns="http://www.w3.org/2000/svg">
<rect width="46" height="46" rx="23" fill="#2C3899" fill-opacity="0.1"/>
<path d="M18.9813 23.2246C19.2332 23.2246 19.437 23.4292 19.437 23.6819V25.4759C19.437 25.7277 19.2332 25.9324 18.9813 25.9324C18.7294 25.9324 18.5256 25.7277 18.5256 25.4759V23.6819C18.5256 23.4292 18.7294 23.2246 18.9813 23.2246ZM14.1091 23.3464C13.979 23.271 13.8175 23.3646 13.8175 23.5154V25.6424C13.8175 25.7932 13.979 25.8868 14.1091 25.8114L15.947 24.7483C16.0762 24.6729 16.0762 24.4848 15.947 24.4094L14.1091 23.3464ZM34.2515 12.0526H25.8802C25.7393 12.7436 25.3831 13.3559 24.8851 13.8158H34.3037C34.4645 13.8158 34.5954 13.9476 34.5954 14.1083V27.2242H10.7583V14.1083C10.7583 13.9476 10.89 13.8158 11.05 13.8158H20.4214C19.9234 13.3559 19.5671 12.7436 19.4263 12.0526H11.103C9.94626 12.0526 9 13.0013 9 14.1613V28.6676C9 29.8277 9.94626 30.7764 11.103 30.7764H18.3789V34.1264H15.178C14.1912 34.1264 13.3841 34.7727 13.3841 35.5632V37H31.9696V35.5632C31.9696 34.7727 31.1634 34.1264 30.1765 34.1264H26.9756V30.7764H34.2515C35.4083 30.7764 36.3545 29.8277 36.3545 28.6676V14.1613C36.3545 13.0013 35.4083 12.0526 34.2515 12.0526ZM19.9143 15.2277C20.9177 15.5666 21.893 16.1259 22.6611 16.8593C23.406 16.1102 24.3697 15.5658 25.3922 15.2277C23.7648 14.0594 21.5417 14.0594 19.9143 15.2277ZM22.2211 17.7135C21.366 16.8004 19.7519 15.8194 17.6754 15.7324C17.5951 15.729 17.5246 15.7556 17.4666 15.8119C17.4078 15.8674 17.3788 15.937 17.3788 16.0182V21.5152C17.3788 21.6718 17.5039 21.7985 17.6597 21.801C19.3144 21.8234 20.9683 22.0504 22.2211 22.734V17.7135ZM17.2711 23.2246C17.02 23.2246 16.8153 23.4292 16.8153 23.6819V25.4759C16.8153 25.7277 17.02 25.9324 17.2711 25.9324C17.523 25.9324 17.7276 25.7277 17.7276 25.4759V23.6819C17.7276 23.4292 17.523 23.2246 17.2711 23.2246ZM27.6799 15.7315C25.5836 15.8111 24.0084 16.7259 23.1334 17.6953V22.734C24.3862 22.0504 26.0401 21.8234 27.6948 21.801C27.8506 21.7985 27.9757 21.6718 27.9757 21.5152V16.0174C27.9757 15.937 27.9459 15.8674 27.8887 15.8119C27.8307 15.7556 27.7603 15.729 27.6799 15.7315ZM20.3187 25.0359H31.4012C31.6531 25.0359 31.8569 24.8312 31.8569 24.5785C31.8569 24.3266 31.6531 24.1219 31.4012 24.1219H20.3187C20.0668 24.1219 19.8629 24.3266 19.8629 24.5785C19.8629 24.8312 20.0668 25.0359 20.3187 25.0359ZM22.6528 13.776C23.9686 13.776 25.035 12.7071 25.035 11.388C25.035 10.0689 23.9686 9 22.6528 9C21.3378 9 20.2714 10.0689 20.2714 11.388C20.2714 12.7071 21.3378 13.776 22.6528 13.776Z" fill="#2C3899"/>
</svg>
