<svg width="19" height="13" viewBox="0 0 19 13" fill="none" xmlns="http://www.w3.org/2000/svg">
<rect width="19" height="13" fill="#F5F5F5"/>
<g id="&#216;&#167;&#217;&#132;&#216;&#177;&#216;&#166;&#217;&#138;&#216;&#179;&#217;&#138;&#216;&#169;- &#216;&#163;&#217;&#134;&#216;&#179; &#216;&#163;&#217;&#131;&#216;&#167;&#216;&#175;&#217;&#138;&#217;&#133;&#217;&#138;" clip-path="url(#clip0_337_2)">
<rect width="1920" height="1080" transform="translate(-1289 -363)" fill="#FBFBFD"/>
<rect id="Rectangle 62" x="-498" y="-196" width="717" height="225" rx="8" fill="white"/>
<g id="Frame 43">
<g id="Frame 41">
<g id="Frame 39">
<g id="Vector">
<path d="M1.71967 8.13062C3.35083 9.75224 6.19554 12 9.43199 12C12.6684 12 15.5126 9.75224 17.1438 8.13062C17.574 7.70295 17.7898 7.48838 17.9268 7.06848C18.0245 6.76888 18.0245 6.23121 17.9268 5.93161C17.7898 5.51169 17.574 5.29709 17.1438 4.86938C15.5126 3.24776 12.6684 1 9.43199 1C6.19554 1 3.35083 3.24776 1.71967 4.86938C1.28914 5.29739 1.07386 5.51154 0.936826 5.93161C0.839092 6.23121 0.839092 6.76888 0.936826 7.06848C1.07386 7.48855 1.28914 7.70261 1.71967 8.13062Z" stroke="#F70387" stroke-width="1.3" stroke-linecap="round" stroke-linejoin="round"/>
<path d="M7.59848 6.50004C7.59848 7.51257 8.41929 8.33338 9.43182 8.33338C10.4444 8.33338 11.2652 7.51257 11.2652 6.50004C11.2652 5.48751 10.4444 4.66669 9.43182 4.66669C8.41929 4.66669 7.59848 5.48751 7.59848 6.50004Z" stroke="#F70387" stroke-width="1.3" stroke-linecap="round" stroke-linejoin="round"/>
</g>
</g>
</g>
</g>
</g>
<defs>
<clipPath id="clip0_337_2">
<rect width="1920" height="1080" fill="white" transform="translate(-1289 -363)"/>
</clipPath>
</defs>
</svg>
