<svg width="24" height="25" viewBox="0 0 24 25" fill="none" xmlns="http://www.w3.org/2000/svg">
<g id="OBJECTS" clip-path="url(#clip0_338_565)">
<path id="Vector" d="M8.17236 1.78499C8.26832 1.84245 8.33762 1.88267 8.40693 1.92289C9.43047 2.48023 10.4593 3.02609 11.4722 3.60641C13.5353 4.79005 14.6068 6.66893 14.6388 9.16835C14.6815 12.409 14.6495 15.6554 14.6495 18.896C14.6495 19.4131 14.5855 19.913 14.4576 20.4071C14.4149 20.5795 14.4362 20.6542 14.6228 20.6427C15.0973 20.6197 15.5664 20.66 16.0409 20.6082C17.2297 20.4704 18.1359 19.4304 18.1573 18.1376C18.1679 17.563 18.1573 16.9884 18.1573 16.4196C18.1573 15.8622 18.4984 15.483 18.9836 15.483C19.4527 15.483 19.7885 15.8622 19.7832 16.4138C19.7725 17.2125 19.8418 18.0111 19.7352 18.8041C19.4687 20.8036 17.7788 22.3895 15.9129 22.4009C15.2252 22.4009 14.5322 22.4067 13.8445 22.4009C13.6792 22.4009 13.5726 22.4584 13.4713 22.602C12.5118 23.9408 11.259 24.7567 9.69702 24.9578C8.64149 25.0957 7.6286 24.8774 6.67436 24.3545C5.45357 23.6823 4.23278 23.01 3.00666 22.3492C2.50555 22.0792 1.96179 21.8838 1.51932 21.4874C0.559746 20.6197 0.0213185 19.5338 0.00532556 18.1778C-0.0106673 16.7356 0.00532556 15.2934 0.00532556 13.8512C0.00532556 13.2766 0.325183 12.9089 0.810301 12.9089C1.28476 12.9089 1.62594 13.2938 1.62594 13.8569C1.62594 15.19 1.62594 16.5287 1.62594 17.8618C1.63127 19.0224 2.10573 19.8785 3.08129 20.4071C4.50466 21.1771 5.92803 21.9585 7.35139 22.7399C9.8836 24.1304 12.6557 22.2286 12.9756 19.3901C13.0129 19.0799 13.0182 18.7638 13.0182 18.4536C13.0182 15.4543 13.0182 12.4492 13.0182 9.4499C13.0182 7.43887 12.2026 5.97943 10.518 5.07734C8.72678 4.11779 6.93025 3.15249 5.1657 2.14123C3.43314 1.14721 1.59928 2.49173 1.62061 4.50276C1.6366 6.14031 1.62061 7.78361 1.62061 9.42117C1.62061 9.95553 1.29542 10.3462 0.852949 10.3692C0.367831 10.3922 -5.40679e-06 10.0302 -0.00533637 9.50735C-0.0106673 8.64548 -0.00533637 7.78936 -0.00533637 6.92749C-0.00533637 6.01391 -0.00533637 5.10032 -0.00533637 4.18674C0.0213185 1.93438 1.81252 0.00379268 3.8916 -0.00195312C7.87916 -0.00195312 11.8721 -0.00195312 15.8596 -0.00195312C18.008 -0.00195312 19.7725 1.91715 19.7885 4.23271C19.7885 4.82452 19.7885 5.41634 19.7885 6.00816C19.7885 6.54826 19.4474 6.92174 18.9676 6.916C18.5091 6.916 18.1679 6.53677 18.1626 6.01391C18.1573 5.51402 18.1626 5.00839 18.1626 4.5085C18.1626 2.8652 17.219 1.78499 15.6997 1.76775C13.2208 1.73903 10.7472 1.76201 8.26832 1.76201C8.247 1.76201 8.22567 1.7735 8.17236 1.78499Z" fill="#CE2F13"/>
<path id="Vector_2" d="M21.1426 12.1044C21.0573 12.0526 20.9614 12.0814 20.8761 12.0814C19.4527 12.0814 18.0347 12.0814 16.6113 12.0814C16.2541 12.0814 15.9769 11.8803 15.8543 11.5355C15.7263 11.185 15.7903 10.8633 16.0249 10.5875C16.1901 10.3921 16.4087 10.3232 16.6539 10.3232C18.056 10.3232 19.4634 10.3232 20.8654 10.3232C20.956 10.3232 21.0466 10.3232 21.1373 10.3232C21.1479 10.2082 21.068 10.191 21.02 10.1508C20.6948 9.88647 20.3643 9.63366 20.0391 9.36361C19.6393 9.03035 19.554 8.50748 19.8205 8.10527C20.0977 7.69158 20.5935 7.61113 21.0093 7.93865C21.7877 8.5477 22.5713 9.1625 23.3336 9.79454C24.2186 10.53 24.2186 11.8573 23.339 12.5927C22.5713 13.2363 21.7823 13.8511 20.9987 14.4659C20.5988 14.7819 20.1031 14.7015 19.8259 14.2935C19.5593 13.9028 19.6286 13.3799 20.0124 13.0524C20.3323 12.7824 20.6681 12.5295 20.9933 12.2652C21.0466 12.2193 21.1319 12.1963 21.1426 12.0986V12.1044Z" fill="#CE2F13"/>
</g>
<defs>
<clipPath id="clip0_338_565">
<rect width="24" height="25" fill="white" transform="translate(0 -0.00195312)"/>
</clipPath>
</defs>
</svg>
